<?xml version="1.0" encoding="UTF-8" standalone="no"?>
<!-- Created with Inkscape (http://www.inkscape.org/) -->

<svg
   xmlns:dc="http://purl.org/dc/elements/1.1/"
   xmlns:cc="http://creativecommons.org/ns#"
   xmlns:rdf="http://www.w3.org/1999/02/22-rdf-syntax-ns#"
   xmlns:svg="http://www.w3.org/2000/svg"
   xmlns="http://www.w3.org/2000/svg"
   xmlns:sodipodi="http://sodipodi.sourceforge.net/DTD/sodipodi-0.dtd"
   xmlns:inkscape="http://www.inkscape.org/namespaces/inkscape"
   version="1.1"
   id="svg3713"
   width="541.33331"
   height="437.33334"
   viewBox="0 0 541.33331 437.33334"
   sodipodi:docname="mason-token.svg"
   inkscape:version="0.92.4 (5da689c313, 2019-01-14)"
   inkscape:export-filename="C:\Users\codyh\Desktop\onuw\minion-token.png"
   inkscape:export-xdpi="96"
   inkscape:export-ydpi="96">
  <metadata
     id="metadata3719">
    <rdf:RDF>
      <cc:Work
         rdf:about="">
        <dc:format>image/svg+xml</dc:format>
        <dc:type
           rdf:resource="http://purl.org/dc/dcmitype/StillImage" />
        <dc:title></dc:title>
      </cc:Work>
    </rdf:RDF>
  </metadata>
  <defs
     id="defs3717" />
  <sodipodi:namedview
     pagecolor="#ffffff"
     bordercolor="#666666"
     borderopacity="1"
     objecttolerance="10"
     gridtolerance="10"
     guidetolerance="10"
     inkscape:pageopacity="0"
     inkscape:pageshadow="2"
     inkscape:window-width="2560"
     inkscape:window-height="1377"
     id="namedview3715"
     showgrid="false"
     inkscape:zoom="1.94"
     inkscape:cx="405.98576"
     inkscape:cy="111.00667"
     inkscape:window-x="2552"
     inkscape:window-y="-8"
     inkscape:window-maximized="1"
     inkscape:current-layer="svg3713" />
  <rect
     style="fill:none"
     id="rect3755"
     width="345.34924"
     height="350.3634"
     x="89.627838"
     y="44.349739"
     ry="0" />
  <rect
     style="fill:none"
     id="rect3757"
     width="84.613693"
     height="41.366695"
     x="319.65173"
     y="219.21805" />
  <rect
     style="fill:none"
     id="rect3759"
     width="350.99014"
     height="347.22955"
     x="89.627838"
     y="44.349739" />
  <path
     style="fill:#000000;stroke-width:1.33333337"
     d=""
     id="path3799"
     inkscape:connector-curvature="0" />
  <path
     style="fill:#000000;stroke-width:1.33333337"
     d=""
     id="path3797"
     inkscape:connector-curvature="0" />
  <path
     style="fill:#000000;stroke-width:1.33333337"
     d="m 215.94063,337.68748 c -40.6806,-40.50236 -49.13327,-49.54192 -48.80987,-52.19886 0.21512,-1.76738 1.44022,-3.87029 2.72242,-4.67312 2.00738,-1.2569 8.83049,5.16164 49.11077,46.19886 25.72872,26.2122 47.46865,47.65855 48.31094,47.65855 0.84231,0 22.8618,-21.3 48.9322,-47.33334 26.0704,-26.03333 48.05793,-47.33333 48.86117,-47.33333 2.78724,0 4.72691,3.66985 3.30236,6.2481 -2.30624,4.17399 -99.50489,100.41857 -101.41402,100.41857 -0.99824,0 -23.95543,-22.04344 -51.01597,-48.98543 z m 3.88904,-14.7254 c -25.46928,-25.50763 -46.30777,-47.1902 -46.30777,-48.1835 0,-1.96196 14.14829,-23.34894 17.0263,-25.73749 1.37871,-1.14421 9.8682,6.61816 38.73408,35.41655 20.33261,20.28506 37.85441,36.88706 38.93733,36.89333 1.08292,0.007 18.46895,-16.84345 38.63561,-37.44384 25.46199,-26.00959 37.27783,-37.20637 38.66667,-36.64084 1.1,0.44791 4.23125,4.55732 6.95835,9.13203 2.72708,4.57469 5.91018,9.50794 7.07354,10.96277 2.01476,2.51953 2.03777,2.48685 0.48441,-0.68819 -0.89694,-1.83333 -4.23005,-7.38946 -7.40689,-12.34697 -3.17684,-4.95749 -5.77608,-9.26705 -5.77608,-9.57679 0,-0.30973 -14.58952,-24.1536 -32.42116,-52.98636 -17.83164,-28.83277 -34.71691,-56.17321 -37.52283,-60.75654 -2.80594,-4.58334 -5.76642,-8.29695 -6.57886,-8.25248 -1.3145,0.072 -15.03686,20.68437 -98.47462,147.91914 -60.77407,92.67477 -62.33585,94.95817 -62.33585,91.13777 0,-0.56079 8.33227,-18.1462 18.51616,-39.0787 20.16076,-41.43945 28.27953,-58.36299 34.88893,-72.72573 2.36224,-5.13334 6.60434,-12.73207 7.66406,-14.82944 1.0597,-2.09739 3.68693,-6.31478 3.07299,-5.93534 -0.61395,0.37944 -7.18846,10.03998 -10.08192,15.97459 -3.23776,6.64079 -6.06094,10.79019 -7.34148,10.79019 -2.94562,0 -48.60788,-46.022 -47.47728,-47.85134 0.60878,-0.98505 7.91901,-1.482 21.80031,-1.482 h 20.88439 l 11.108,11.28428 11.10798,11.28428 10.74586,-22.28428 c 5.91021,-12.25636 13.61966,-28.28428 17.13213,-35.61761 26.03124,-54.34813 41.64332,-85.726627 43.7882,-88.009277 1.38294,-1.47177 2.94726,-5.23785 3.47629,-8.36906 1.9406,-11.48634 14.48083,-19.40324 25.87464,-16.3352 11.15269,3.00311 13.53616,6.48683 30.59169,44.713537 6.5438,14.66666 17.14476,38.06667 23.55771,52 6.41293,13.93333 16.17873,35.23333 21.70176,47.33333 5.52304,12.1 10.56227,22.67011 11.19831,23.48914 0.77712,1.0007 4.5968,-1.95126 11.64556,-9 l 10.48914,-10.48914 h 22.16161 c 16.93811,0 22.16161,0.39611 22.16161,1.68056 0,2.17644 -46.83586,48.98611 -49.01352,48.98611 -1.57594,0 -2.37373,5.50164 -0.99736,6.87801 0.36068,0.36068 13.71436,-12.43932 29.67484,-28.44445 23.41451,-23.48 29.71044,-29.10023 32.59885,-29.10023 1.9689,0 3.96538,0.62387 4.43663,1.38636 1.13679,1.83936 -56.43285,59.82927 -60.37888,60.81966 -2.29432,0.57584 -2.86376,1.41584 -2.25661,3.32881 0.44665,1.40724 8.31688,19.1876 17.48941,39.51191 9.17254,20.32429 17.86347,39.95327 19.31316,43.61993 2.59328,6.55903 2.59392,6.62362 0.0401,4 -1.42766,-1.46666 -10.87448,-16.16666 -20.99296,-32.66667 -22.60962,-36.86901 -30.30768,-49.0749 -33.51463,-53.14005 l -2.47715,-3.14004 -0.23125,3.06995 c -0.15833,2.1019 -14.85905,17.70224 -46.62048,49.47338 -25.51408,25.52189 -47.00394,46.40343 -47.75527,46.40343 -0.75132,0 -22.20454,-20.86988 -47.6738,-46.37749 z m -101.4581,-83.6352 C 88.263977,209.77326 86.051827,206.6729 95.072517,206.6729 c 3.81111,0 7.390563,3.07522 31.427113,27 22.51869,22.41398 27.06071,27.56618 26.74087,30.33334 -0.87519,7.57209 -4.95376,4.68538 -34.86893,-24.67936 z m 139.15032,18.43057 c -6.20114,-1.02745 -20.3988,-5.90841 -27.21821,-9.35724 -9.00129,-4.55228 -22.11512,-13.50472 -22.11512,-15.09737 0,-2.00559 11.74191,-10.00678 22.47207,-15.31295 30.20637,-14.93737 57.34786,-12.53385 87.86126,7.78055 4.58333,3.05137 8.32559,6.45272 8.31611,7.55854 -0.0225,2.63627 -17.11983,13.70075 -28.00652,18.1244 -14.58255,5.92543 -29.68499,8.23015 -41.30959,6.30407 z m 18.79184,-9.14928 c 5.1648,-2.67081 9.19819,-9.36608 9.19819,-15.2686 0,-14.54047 -17.70235,-22.77252 -28.52889,-13.26669 -6.00351,5.27116 -8.20034,11.6535 -6.1498,17.86672 2.30256,6.9768 9.59673,12.7333 16.13461,12.7333 2.94423,0 7.14988,-0.92913 9.34589,-2.06473 z m -14.07654,-11.21488 c -5.30986,-5.86731 2.75089,-14.45745 9.44848,-10.06901 3.47356,2.27594 4.32982,8.32169 1.56956,11.08196 -2.44948,2.44948 -8.37783,1.90446 -11.01804,-1.01295 z m -18.83247,-4.05951 c -0.0644,-6.60349 -0.38035,-12.26952 -0.702,-12.59116 -1.14164,-1.14164 -21.84749,10.77138 -21.84749,12.56986 0,1.93749 17.27046,11.9711 20.66666,12.0067 1.63983,0.0172 1.9789,-2.1412 1.88283,-11.9854 z m 61.37508,6.96364 c 5.09184,-2.72682 9.48674,-5.69258 9.76646,-6.59058 0.95906,-3.07902 -20.69117,-14.47824 -23.03898,-12.13044 -0.36524,0.36525 0.012,2.60344 0.83829,4.97377 1.45945,4.18663 1.07764,11.71201 -0.83496,16.45607 -1.50541,3.73408 2.92836,2.82896 13.26919,-2.70882 z"
     id="path3829"
     inkscape:connector-curvature="0"
     sodipodi:nodetypes="sccssssssscscscscccscssccssssccsscscccccscsscssccsssssscccsccsccsssccssscscssssccccsscscccccccscccccscc"
     inkscape:export-xdpi="96"
     inkscape:export-ydpi="96" />
</svg>
