<?xml version="1.0" encoding="UTF-8" standalone="no"?>
<!-- Created with Inkscape (http://www.inkscape.org/) -->

<svg
   xmlns:dc="http://purl.org/dc/elements/1.1/"
   xmlns:cc="http://creativecommons.org/ns#"
   xmlns:rdf="http://www.w3.org/1999/02/22-rdf-syntax-ns#"
   xmlns:svg="http://www.w3.org/2000/svg"
   xmlns="http://www.w3.org/2000/svg"
   xmlns:sodipodi="http://sodipodi.sourceforge.net/DTD/sodipodi-0.dtd"
   xmlns:inkscape="http://www.inkscape.org/namespaces/inkscape"
   version="1.1"
   id="svg3713"
   width="541.33331"
   height="437.33334"
   viewBox="0 0 541.33331 437.33334"
   sodipodi:docname="villager-token.svg"
   inkscape:version="0.92.4 (5da689c313, 2019-01-14)"
   inkscape:export-filename="C:\Users\codyh\Desktop\onuw\robber-token.png"
   inkscape:export-xdpi="96"
   inkscape:export-ydpi="96">
  <metadata
     id="metadata3719">
    <rdf:RDF>
      <cc:Work
         rdf:about="">
        <dc:format>image/svg+xml</dc:format>
        <dc:type
           rdf:resource="http://purl.org/dc/dcmitype/StillImage" />
        <dc:title></dc:title>
      </cc:Work>
    </rdf:RDF>
  </metadata>
  <defs
     id="defs3717" />
  <sodipodi:namedview
     pagecolor="#ffffff"
     bordercolor="#666666"
     borderopacity="1"
     objecttolerance="10"
     gridtolerance="10"
     guidetolerance="10"
     inkscape:pageopacity="0"
     inkscape:pageshadow="2"
     inkscape:window-width="2560"
     inkscape:window-height="1377"
     id="namedview3715"
     showgrid="false"
     inkscape:zoom="1.3717872"
     inkscape:cx="211.55356"
     inkscape:cy="241.0231"
     inkscape:window-x="2552"
     inkscape:window-y="-8"
     inkscape:window-maximized="1"
     inkscape:current-layer="svg3713"
     showguides="true"
     inkscape:guide-bbox="true">
    <sodipodi:guide
       position="-270.61855,481.95876"
       orientation="0,1"
       id="guide3861"
       inkscape:locked="false" />
    <sodipodi:guide
       position="-212.37113,474.74226"
       orientation="0,1"
       id="guide3863"
       inkscape:locked="false" />
    <sodipodi:guide
       position="-194.84536,474.74226"
       orientation="0,1"
       id="guide3865"
       inkscape:locked="false" />
    <sodipodi:guide
       position="-168.5567,474.74226"
       orientation="0,1"
       id="guide3867"
       inkscape:locked="false" />
    <sodipodi:guide
       position="-108.24742,474.74226"
       orientation="0,1"
       id="guide3869"
       inkscape:locked="false" />
    <sodipodi:guide
       position="-123.71134,474.74226"
       orientation="0,1"
       id="guide3871"
       inkscape:locked="false" />
    <sodipodi:guide
       position="-103.09278,394.84536"
       orientation="1,0"
       id="guide3873"
       inkscape:locked="false" />
    <sodipodi:guide
       position="-112.37113,343.29897"
       orientation="1,0"
       id="guide3875"
       inkscape:locked="false" />
  </sodipodi:namedview>
  <rect
     style="fill:none"
     id="rect3755"
     width="345.34924"
     height="350.3634"
     x="89.627838"
     y="44.349739"
     ry="0" />
  <rect
     style="fill:none"
     id="rect3757"
     width="84.613693"
     height="41.366695"
     x="319.65173"
     y="219.21805" />
  <rect
     style="fill:none"
     id="rect3759"
     width="350.99014"
     height="347.22955"
     x="89.627838"
     y="44.349739" />
  <path
     style="fill:#000000;stroke-width:1.33333337"
     d="m 289.88306,372.02952 c -4.79284,-1.24052 -9.0678,-4.87468 -10.90414,-9.26968 -1.47551,-3.5314 -1.8181,-21.65307 -1.8181,-96.17191 0,-50.50134 -0.36113,-92.18175 -0.80253,-92.62314 -0.44139,-0.4414 -2.69139,0.0191 -5,1.02324 -2.3086,1.00418 -10.19747,4.06742 -17.5308,6.80719 -7.33333,2.73977 -19.03333,7.34181 -26,10.22675 -6.96667,2.88493 -14.31667,5.55093 -16.33333,5.92445 l -3.66667,0.67912 0.0204,-8.48467 c 0.0107,-4.66657 0.46123,-9.13588 1,-9.93181 1.02147,-1.50901 15.7268,-8.55285 17.85567,-8.55285 0.67128,0 9.74877,-3.35196 20.17221,-7.44882 36.18854,-14.2236 35.47462,-14.08332 69.32492,-13.62179 28.52857,0.38897 29.87388,0.5275 36.29252,3.73727 12.03498,6.01834 21.49642,22.61246 25.36683,44.49008 1.19164,6.73584 1.9276,20.01582 1.94286,35.05807 l 0.0245,24.2148 -4.10231,3.45187 c -5.138,4.32335 -9.91984,4.40197 -13.641,0.22431 -2.71818,-3.05167 -2.88124,-4.59566 -2.99208,-28.33334 -0.0707,-15.12253 -0.77572,-27.75677 -1.77318,-31.77245 -0.91077,-3.66667 -2.28616,-9.17827 -3.05641,-12.24802 -0.77026,-3.06973 -2.23324,-5.9009 -3.25107,-6.29148 -1.56729,-0.60142 -1.85061,13.01692 -1.85061,88.95134 0,81.98216 -0.19295,89.94383 -2.25286,92.95815 -6.20576,9.08106 -19.18,9.65041 -26.3281,1.15537 l -3.41899,-4.06329 V 307.0505 c 0,-47.99504 -0.26413,-55.28698 -2.05651,-56.77452 -1.3147,-1.09112 -2.51848,-1.24478 -3.33725,-0.42601 -0.77509,0.77509 -1.30253,22.77523 -1.33593,55.724 -0.0592,58.45163 -0.18976,59.64971 -6.96472,63.9388 -3.56712,2.25827 -9.98659,3.44768 -13.58335,2.51675 z m -90.76669,-3.37331 c -0.34509,-0.91667 -0.77626,-50.26667 -0.95816,-109.66667 l -0.33072,-108 -14.33214,-0.37843 c -19.15325,-0.50573 -18.18898,1.24943 -18.38873,-33.47125 -0.15705,-27.299329 0.37691,-30.668419 4.60347,-29.046539 1.74951,0.67135 2.11655,4.88923 2.42295,27.843719 l 0.36111,27.0525 h 12.66668 12.66666 l 0.66667,-27.33333 c 0.54839,-22.484149 1.00447,-27.333339 2.57074,-27.333339 3.11187,0 3.90231,6.221 3.79375,29.858229 -0.0567,12.32421 0.32364,23.09782 0.84499,23.94137 1.36113,2.20237 23.34533,2.08129 24.13608,-0.13293 0.32736,-0.91667 0.75852,-13.36667 0.95814,-27.66667 0.34826,-24.946759 0.47046,-25.999999 3.01654,-25.999999 3.76734,0 4.33888,4.08661 4.52201,32.333339 0.19959,30.78692 0.92368,29.66666 -19.17559,29.66666 h -14 l -0.14464,14.33334 c -0.0796,7.88333 -0.0213,56.50169 0.12947,108.04079 0.2758,94.32532 0.13415,97.62588 -4.18993,97.62588 -0.66656,0 -1.49427,-0.75 -1.83935,-1.66667 z M 187.149,201.81243 c -1.69382,-1.23854 -2.52151,-3.47817 -2.52151,-6.82289 0,-5.26763 2.92376,-8.66667 7.45484,-8.66667 2.07952,0 2.41183,1.19414 2.41183,8.66667 0,7.47253 -0.33231,8.66667 -2.41183,8.66667 -1.3265,0 -3.5465,-0.8297 -4.93333,-1.84378 z m 111.87915,-62.6816 c -9.35573,-4.35635 -15.20066,-13.30652 -15.20066,-23.27632 0,-5.02643 6.29946,-17.025679 10.09433,-19.227729 0.97572,-0.56618 2.77455,-2.02993 3.9974,-3.25279 1.76881,-1.7688 4.96289,-2.2389 15.62291,-2.29933 9.57102,-0.0543 13.55782,0.39893 13.95356,1.58613 0.3047,0.91414 1.35302,1.66208 2.3296,1.66208 0.97656,0 4.15137,2.69906 7.05513,5.997899 9.51175,10.80591 9.19604,23.31735 -0.84452,33.46937 -8.79813,8.89579 -24.50483,11.16247 -37.00775,5.34069 z m -41.88197,-31.34571 c -6.97473,-1.23436 -13.42473,-2.70374 -14.33333,-3.26529 -0.90861,-0.56155 -1.65203,-3.37696 -1.65203,-6.256459 0,-5.08448 0.2403,-5.35677 8.33334,-9.44275 4.58333,-2.31402 10.13333,-4.75941 12.33333,-5.43421 8.11139,-2.48798 17.48906,-4.81035 23.15484,-5.73427 3.86902,-0.63092 7.51734,-2.48141 10.87782,-5.5174 10.01942,-9.051945 25.4242,-9.040215 35.03792,0.0267 3.51299,3.31318 6.46639,4.73483 11.18476,5.3839 9.87796,1.35883 30.85469,8.40337 39.74465,13.34731 6.01743,3.34645 8.1004,5.27106 8.40516,7.76612 0.34015,2.784919 -0.4721,3.668109 -5.06274,5.504919 -5.44299,2.17785 -16.43144,4.20929 -30.98085,5.72743 -6.68715,0.69776 -7.75292,0.48369 -8.5578,-1.71894 -2.3214,-6.35274 -8.70055,-13.660109 -14.08246,-16.131579 -12.62173,-5.79615 -17.16989,-6.281 -27.9204,-2.9764 -10.97746,3.37436 -15.47936,6.83774 -20.02428,15.404989 -2.9081,5.48184 -3.44433,5.84438 -8.44099,5.70697 -2.9346,-0.0807 -11.04222,-1.15666 -18.01694,-2.39102 z"
     id="path3929"
     inkscape:connector-curvature="0"
     inkscape:export-xdpi="96"
     inkscape:export-ydpi="96" />
</svg>
