<?xml version="1.0" encoding="UTF-8" standalone="no"?>
<!-- Created with Inkscape (http://www.inkscape.org/) -->

<svg
   xmlns:dc="http://purl.org/dc/elements/1.1/"
   xmlns:cc="http://creativecommons.org/ns#"
   xmlns:rdf="http://www.w3.org/1999/02/22-rdf-syntax-ns#"
   xmlns:svg="http://www.w3.org/2000/svg"
   xmlns="http://www.w3.org/2000/svg"
   xmlns:sodipodi="http://sodipodi.sourceforge.net/DTD/sodipodi-0.dtd"
   xmlns:inkscape="http://www.inkscape.org/namespaces/inkscape"
   version="1.1"
   id="svg3713"
   width="541.33331"
   height="437.33334"
   viewBox="0 0 541.33331 437.33334"
   sodipodi:docname="drunk-token.svg"
   inkscape:version="0.92.4 (5da689c313, 2019-01-14)"
   inkscape:export-filename="C:\Users\codyh\Desktop\onuw\minion-token.png"
   inkscape:export-xdpi="96"
   inkscape:export-ydpi="96">
  <metadata
     id="metadata3719">
    <rdf:RDF>
      <cc:Work
         rdf:about="">
        <dc:format>image/svg+xml</dc:format>
        <dc:type
           rdf:resource="http://purl.org/dc/dcmitype/StillImage" />
        <dc:title></dc:title>
      </cc:Work>
    </rdf:RDF>
  </metadata>
  <defs
     id="defs3717" />
  <sodipodi:namedview
     pagecolor="#ffffff"
     bordercolor="#666666"
     borderopacity="1"
     objecttolerance="10"
     gridtolerance="10"
     guidetolerance="10"
     inkscape:pageopacity="0"
     inkscape:pageshadow="2"
     inkscape:window-width="2560"
     inkscape:window-height="1377"
     id="namedview3715"
     showgrid="false"
     inkscape:zoom="1.94"
     inkscape:cx="405.98576"
     inkscape:cy="111.00667"
     inkscape:window-x="2552"
     inkscape:window-y="-8"
     inkscape:window-maximized="1"
     inkscape:current-layer="svg3713" />
  <rect
     style="fill:none"
     id="rect3755"
     width="345.34924"
     height="350.3634"
     x="89.627838"
     y="44.349739"
     ry="0" />
  <rect
     style="fill:none"
     id="rect3757"
     width="84.613693"
     height="41.366695"
     x="319.65173"
     y="219.21805" />
  <rect
     style="fill:none"
     id="rect3759"
     width="350.99014"
     height="347.22955"
     x="89.627838"
     y="44.349739" />
  <path
     style="fill:#000000;stroke-width:1.33333337"
     d="m 201.99566,375.6706 c -21.5151,-2.66246 -51.99672,-9.73204 -56.65844,-13.14078 -2.44995,-1.79145 -2.63801,1.59272 4.64046,-83.50423 2.22668,-26.03333 4.64649,-54.53333 5.37738,-63.33333 2.72852,-32.85203 3.6585,-40.88456 4.87421,-42.10027 0.77495,-0.77494 4.12365,-0.67034 8.83592,0.27602 15.03945,3.02036 31.50703,-3.40514 43.07913,-16.80906 l 6.35994,-7.36669 h 47.00035 c 25.89289,0 47.32849,0.53096 47.73105,1.18231 0.40188,0.65028 1.28995,7.62293 1.97348,15.4948 0.68353,7.87186 1.74012,14.78665 2.34799,15.3662 0.60785,0.57953 11.00519,1.28785 23.10519,1.57404 24.18731,0.57208 27.84514,1.48277 36.50886,9.08961 2.73986,2.40564 6.29624,6.83071 7.90302,9.83347 2.80631,5.24438 2.93731,7.1589 3.32376,48.57452 0.45874,49.16125 0.0293,52.01725 -9.25926,61.58856 -8.0592,8.30445 -12.57076,9.77537 -32.47638,10.58847 l -17.33333,0.70802 0.0281,8 c 0.0155,4.4 0.31547,13.1 0.66667,19.33334 l 0.63855,11.33333 -8.89516,2.97351 c -32.58693,10.89325 -81.3046,15.09836 -119.77152,10.33816 z m -6.19469,-46.58134 3.52803,-3.26966 v -62.12429 -62.12426 l -3.27274,-3.27272 c -5.49178,-5.4918 -13.61254,-3.91848 -17.38013,3.36724 -2.99753,5.7966 -3.01008,118.23253 -0.0139,124.02664 3.7861,7.32151 11.2976,8.81036 17.13867,3.39705 z m 48.96392,-0.62777 3.89744,-3.89743 v -60.8718 -60.8718 l -3.89744,-3.89743 c -5.97064,-5.97065 -13.32137,-4.96813 -17.21811,2.34824 -1.11336,2.09042 -1.55112,19.89946 -1.55112,63.10256 v 60.19023 l 3.89744,3.89743 c 2.34956,2.34956 5.30274,3.89744 7.4359,3.89744 2.13316,0 5.08633,-1.54788 7.43589,-3.89744 z m 43.48976,0.67955 3.74101,-3.21788 v -62.2309 -62.23089 l -3.74101,-3.21788 c -4.80091,-4.12956 -10.23984,-4.11044 -14.73096,0.0517 l -3.52803,3.26971 v 61.88185 61.88184 l 3.51515,3.51516 c 4.4329,4.43291 9.80982,4.54131 14.74384,0.29726 z m 69.47126,-26.30759 c 3.92556,-1.90034 7.19592,-4.89356 9.75431,-8.92771 l 3.84877,-6.06889 v -33.79208 c 0,-37.50306 -0.49951,-40.04806 -9.31627,-47.46688 -5.71358,-4.80767 -11.89533,-6.20292 -27.52048,-6.21152 -15.28425,-0.008 -17.14658,0.95573 -15.88686,8.22482 0.42265,2.43892 1.96655,20.0344 3.43088,39.10107 3.47898,45.29939 4.00564,51.41844 4.7337,55 0.57904,2.84854 1.22682,3 12.83014,3 9.76898,0 13.4049,-0.57345 18.12581,-2.85881 z M 170.454,162.84689 c -11.05168,-1.94024 -21.35922,-9.60158 -26.42088,-19.63799 -6.07649,-12.04864 -3.2113,-29.75152 6.36277,-39.31303 8.43724,-8.426164 14.33876,-10.80668 26.93311,-10.864103 l 10.66666,-0.04863 1.54662,-6.244426 c 3.63346,-14.670051 12.91582,-25.828769 26.5596,-31.928411 4.99482,-2.233009 9.10602,-2.931619 17.22712,-2.927387 14.22023,0.0075 23.00565,4.081067 33.27505,15.429113 l 7.35984,8.132892 5.01589,-2.132414 c 7.56189,-3.214806 10.63777,-3.879147 17.70685,-3.82439 13.84494,0.10724 27.98305,10.46853 32.54223,23.848958 9.1815,26.946238 -15.99087,53.192598 -43.37965,45.230458 -4.08536,-1.18765 -9.667,-4.1717 -12.76796,-6.82601 -3.03023,-2.59377 -6.01603,-4.71593 -6.63514,-4.71593 -0.6191,0 -4.09896,2.11395 -7.733,4.69766 -11.57817,8.23178 -24.65089,10.5497 -37.50554,6.6501 -9.21413,-2.7952 -9.5458,-2.6933 -12.63665,3.8822 -3.12966,6.65806 -10.23359,14.50206 -15.68855,17.32292 -5.4358,2.81096 -16.14484,4.37156 -22.42837,3.26842 z"
     id="path3784"
     inkscape:connector-curvature="0" />
</svg>
