<?xml version="1.0" encoding="UTF-8" standalone="no"?>
<!-- Created with Inkscape (http://www.inkscape.org/) -->

<svg
   xmlns:dc="http://purl.org/dc/elements/1.1/"
   xmlns:cc="http://creativecommons.org/ns#"
   xmlns:rdf="http://www.w3.org/1999/02/22-rdf-syntax-ns#"
   xmlns:svg="http://www.w3.org/2000/svg"
   xmlns="http://www.w3.org/2000/svg"
   xmlns:sodipodi="http://sodipodi.sourceforge.net/DTD/sodipodi-0.dtd"
   xmlns:inkscape="http://www.inkscape.org/namespaces/inkscape"
   version="1.1"
   id="svg3713"
   width="541.33331"
   height="437.33334"
   viewBox="0 0 541.33331 437.33334"
   sodipodi:docname="insomniac-token.svg"
   inkscape:version="0.92.4 (5da689c313, 2019-01-14)"
   inkscape:export-filename="C:\Users\codyh\Desktop\onuw\minion-token.png"
   inkscape:export-xdpi="96"
   inkscape:export-ydpi="96">
  <metadata
     id="metadata3719">
    <rdf:RDF>
      <cc:Work
         rdf:about="">
        <dc:format>image/svg+xml</dc:format>
        <dc:type
           rdf:resource="http://purl.org/dc/dcmitype/StillImage" />
        <dc:title></dc:title>
      </cc:Work>
    </rdf:RDF>
  </metadata>
  <defs
     id="defs3717" />
  <sodipodi:namedview
     pagecolor="#ffffff"
     bordercolor="#666666"
     borderopacity="1"
     objecttolerance="10"
     gridtolerance="10"
     guidetolerance="10"
     inkscape:pageopacity="0"
     inkscape:pageshadow="2"
     inkscape:window-width="2560"
     inkscape:window-height="1377"
     id="namedview3715"
     showgrid="false"
     inkscape:zoom="1.94"
     inkscape:cx="405.98576"
     inkscape:cy="111.00667"
     inkscape:window-x="2552"
     inkscape:window-y="-8"
     inkscape:window-maximized="1"
     inkscape:current-layer="svg3713" />
  <rect
     style="fill:none"
     id="rect3755"
     width="345.34924"
     height="350.3634"
     x="89.627838"
     y="44.349739"
     ry="0" />
  <rect
     style="fill:none"
     id="rect3757"
     width="84.613693"
     height="41.366695"
     x="319.65173"
     y="219.21805" />
  <rect
     style="fill:none"
     id="rect3759"
     width="350.99014"
     height="347.22955"
     x="89.627838"
     y="44.349739" />
  <path
     style="fill:#000000;stroke-width:1.33333337"
     d=""
     id="path3799"
     inkscape:connector-curvature="0" />
  <path
     style="fill:#000000;stroke-width:1.33333337"
     d=""
     id="path3797"
     inkscape:connector-curvature="0" />
  <path
     style="fill:#000000;stroke-width:1.33333337"
     d="M 255.16081,368.04117 C 199.2214,355.77761 156.276,314.5045 141.24823,258.56433 c -4.04182,-15.04551 -4.97717,-47.56676 -1.81411,-63.0749 3.93658,-19.30058 10.08336,-36.032 13.23743,-36.032 0.87655,0 18.63674,7.67008 39.4671,17.04462 l 37.87336,17.04461 2.14256,10.62205 c 9.04474,44.84063 37.58943,79.53346 76.62969,93.13467 15.85308,5.52304 23.29894,6.72157 41.98971,6.75889 18.89677,0.0377 26.07524,-1.13686 42,-6.87234 12.68734,-4.5695 15.02465,-4.98187 17.341,-3.05947 3.38576,2.80993 2.27577,6.04857 -5.78474,16.87819 -21.85988,29.36957 -53.40691,49.41964 -89.97677,57.18568 -11.62837,2.46943 -47.65507,2.3762 -59.19265,-0.15316 z m 71.61316,-124.58374 c -3.43391,-3.4339 -3.62385,-1.02116 2.08431,-26.47586 0.57881,-2.58114 -1.09268,-4.86011 -9.35647,-12.75695 -14.77297,-14.117 -13.59931,-19.56491 4.60549,-21.37776 15.12938,-1.50661 15.53158,-1.68299 18.55846,-8.13827 1.52618,-3.2548 4.06665,-8.6725 5.6455,-12.03933 5.95058,-12.68945 12.26852,-10.91589 19.85004,5.57227 5.80715,12.62929 6.37638,13.02924 20.61267,14.4829 18.70974,1.91046 20.31598,7.58952 6,21.21379 -10.43438,9.93021 -10.48335,10.09967 -7.16568,24.79076 1.64496,7.28409 1.81664,10.36903 0.71201,12.79344 -2.62841,5.76873 -6.92631,5.44271 -19.64484,-1.49016 l -11.61954,-6.33383 -11.62718,6.21283 c -6.39494,3.41707 -12.60838,6.21284 -13.80764,6.21284 -1.19925,0 -3.38046,-1.2 -4.84713,-2.66667 z M 194.19118,162.24541 c -55.46519,-24.75518 -59.4172,-27.05959 -59.4172,-34.64618 0,-4.37293 10.68796,-28.810559 14.49478,-33.141799 5.03045,-5.72342 8.87733,-4.49929 65.86935,20.960649 54.85328,24.5045 59.63586,27.23813 59.63586,34.08645 0,4.27072 -11.347,29.75261 -14.96244,33.60108 -5.2518,5.59028 -9.09164,4.36962 -65.62035,-20.8602 z m 82.50475,-33.99243 c -1.46926,-1.02911 -23.05277,-10.9652 -47.96334,-22.0802 -24.91057,-11.114999 -45.80609,-20.717139 -46.43448,-21.338089 -1.57232,-1.55369 3.68387,-4.76699 17.4636,-10.67616 44.06833,-18.897832 79.57276,-22.840124 113.41162,-12.59285 6.08631,1.8431 11.37817,4.16456 11.75971,5.15881 0.38153,0.99426 -0.65558,4.41591 -2.3047,7.60367 -1.84916,3.57447 -3.29017,9.34219 -3.7597,15.04831 l -0.76134,9.25237 -8,4.604689 c -4.4,2.53257 -12.89062,9.61901 -18.86805,15.74762 -5.97742,6.12862 -11.09392,11.14295 -11.36998,11.14295 -0.27607,0 -1.70407,-0.842 -3.17334,-1.87112 z m 69.41435,-14.89609 c -6.0119,-3.13468 -8.79208,-6.01261 -11.49534,-11.89946 -6.41132,-13.961889 1.24358,-29.380649 16.87838,-33.996979 7.89441,-2.33091 15.78602,0.15148 22.80952,7.17497 6.20347,6.20349 7.97483,11.92596 6.57701,21.24738 -1.03359,6.892449 -7.35303,15.117589 -13.63,17.740279 -5.84719,2.44311 -16.19337,2.31283 -21.13957,-0.26619 z"
     id="path3814"
     inkscape:connector-curvature="0"
     inkscape:export-xdpi="96"
     inkscape:export-ydpi="96" />
</svg>
