<?xml version="1.0" encoding="UTF-8" standalone="no"?>
<!-- Created with Inkscape (http://www.inkscape.org/) -->

<svg
   xmlns:dc="http://purl.org/dc/elements/1.1/"
   xmlns:cc="http://creativecommons.org/ns#"
   xmlns:rdf="http://www.w3.org/1999/02/22-rdf-syntax-ns#"
   xmlns:svg="http://www.w3.org/2000/svg"
   xmlns="http://www.w3.org/2000/svg"
   xmlns:sodipodi="http://sodipodi.sourceforge.net/DTD/sodipodi-0.dtd"
   xmlns:inkscape="http://www.inkscape.org/namespaces/inkscape"
   version="1.1"
   id="svg3713"
   width="541.33331"
   height="437.33334"
   viewBox="0 0 541.33331 437.33334"
   sodipodi:docname="minion-token.svg"
   inkscape:version="0.92.4 (5da689c313, 2019-01-14)"
   inkscape:export-filename="C:\Users\codyh\Desktop\onuw\minion-token.png"
   inkscape:export-xdpi="96"
   inkscape:export-ydpi="96">
  <metadata
     id="metadata3719">
    <rdf:RDF>
      <cc:Work
         rdf:about="">
        <dc:format>image/svg+xml</dc:format>
        <dc:type
           rdf:resource="http://purl.org/dc/dcmitype/StillImage" />
        <dc:title></dc:title>
      </cc:Work>
    </rdf:RDF>
  </metadata>
  <defs
     id="defs3717" />
  <sodipodi:namedview
     pagecolor="#ffffff"
     bordercolor="#666666"
     borderopacity="1"
     objecttolerance="10"
     gridtolerance="10"
     guidetolerance="10"
     inkscape:pageopacity="0"
     inkscape:pageshadow="2"
     inkscape:window-width="2560"
     inkscape:window-height="1377"
     id="namedview3715"
     showgrid="false"
     inkscape:zoom="1.94"
     inkscape:cx="574.4192"
     inkscape:cy="111.00667"
     inkscape:window-x="2552"
     inkscape:window-y="-8"
     inkscape:window-maximized="1"
     inkscape:current-layer="svg3713" />
  <rect
     style="fill:none"
     id="rect3755"
     width="345.34924"
     height="350.3634"
     x="89.627838"
     y="44.349739"
     ry="0" />
  <rect
     style="fill:none"
     id="rect3757"
     width="84.613693"
     height="41.366695"
     x="319.65173"
     y="219.21805" />
  <rect
     style="fill:none"
     id="rect3759"
     width="350.99014"
     height="347.22955"
     x="89.627838"
     y="44.349739" />
  <path
     style="fill:#000000;stroke-width:1.33333337"
     d=""
     id="path3799"
     inkscape:connector-curvature="0" />
  <path
     style="fill:#000000;stroke-width:1.33333337"
     d=""
     id="path3797"
     inkscape:connector-curvature="0" />
  <path
     style="fill:#000000;stroke-width:1.33333337"
     d="m 256.47135,376.37784 c -5.31258,-1.77566 -12.03631,-4.72904 -14.9416,-6.56307 -6.88148,-4.34409 -14.83202,-14.99559 -20.74382,-27.79091 -2.60485,-5.63785 -4.97473,-10.25065 -5.26641,-10.25065 -0.29167,0 -4.24027,6.75 -8.77468,15 -10.21096,18.57804 -18.75741,31 -21.32837,31 -1.65949,0 -1.95671,-4.80275 -1.98025,-32 -0.0265,-30.71844 -1.94355,-53.82245 -4.82635,-58.16957 -0.92644,-1.39703 -3.81037,0.86869 -12.17991,9.56893 -12.87218,13.38084 -20.09857,23.8372 -32.17502,46.55631 -9.97093,18.75805 -10.80496,19.89705 -12.97814,17.72388 -2.27597,-2.27598 0.7887,-40.94448 7.08355,-89.37687 1.55103,-11.93352 2.43512,-22.08224 1.96464,-22.55272 -1.49561,-1.49561 -16.72854,3.41939 -44.194392,14.25963 -32.47089,12.81564 -34,13.2437 -34,9.51821 0,-1.51871 10.24418,-16.31241 22.76486,-32.87488 35.548012,-47.02328 45.307502,-62.90358 68.413262,-111.31959 0.87494,-1.83333 2.71407,-3.33333 4.08696,-3.33333 2.02982,0 3.4071,2.98933 7.37171,16 7.98653,26.2094 17.0208,44.53148 33.24615,67.42531 9.55326,13.4796 31.38295,37.24136 34.21325,37.24136 1.00942,0 2.76984,-1.80716 3.91202,-4.0159 1.9921,-3.85229 1.89038,-4.40908 -2.49666,-13.66666 -2.51535,-5.30794 -5.59443,-13.85078 -6.84242,-18.98411 -2.57845,-10.60589 -3.82528,-12.63465 -7.8324,-12.74427 -3.63498,-0.0995 -17.22206,-6.78012 -17.82743,-8.76564 -0.25319,-0.83044 2.56613,-3.73155 6.26517,-6.44689 3.69904,-2.71534 6.72552,-5.54063 6.72552,-6.27842 0,-0.73778 -3.32375,-5.33669 -7.38609,-10.21977 -10.96972,-13.18599 -13.67014,-19.62668 -15.38628,-36.69736 -0.9672,-9.62086 -1.01016,-14.93179 -0.12787,-15.81402 1.29328,-1.29329 1.83527,-0.82641 9.13229,7.8669 2.78907,3.32281 25.21732,19.09947 27.15195,19.09947 1.66122,0 1.64334,-0.14446 -0.71734,-5.79435 -2.51249,-6.01324 -2.5489,-11.94329 -0.1024,-16.67436 2.9681,-5.73965 12.96671,-14.21036 19.89823,-16.85753 l 6.30611,-2.408323 3.92104,3.756593 c 3.83841,3.67744 4.04104,3.71678 9.61568,1.86728 3.22842,-1.07109 10.41174,-1.8356 16.58665,-1.76529 9.00446,0.10253 12.1842,0.75624 18.3487,3.77226 l 7.45671,3.64823 3.94949,-3.32329 c 5.10835,-4.29838 7.67184,-3.56139 16.87768,4.85224 8.06524,7.37117 15.11952,18.38398 15.11268,23.5932 -0.003,1.83334 -1.80196,6.87816 -3.999,11.21071 -2.19704,4.33256 -3.70529,8.16671 -3.35168,8.52032 0.35362,0.35363 3.09298,-1.57052 6.08746,-4.27585 2.99449,-2.70535 8.56034,-6.96487 12.36857,-9.46562 9.09265,-5.97085 11.88807,-8.43906 15.46664,-13.65622 6.52192,-9.50825 8.3193,-3.51626 5.3497,17.83444 -1.68414,12.10857 -4.26849,17.73437 -14.05267,30.59092 -3.94512,5.18394 -7.17295,10.09667 -7.17295,10.91715 0,0.82049 2.72144,3.44618 6.04765,5.83489 3.48674,2.50399 5.88631,5.22095 5.66667,6.41617 -0.57769,3.14346 -12.78657,8.43499 -21.04765,9.12242 -8.43104,0.70156 -10.07126,1.67228 -11.27375,6.67204 -0.47779,1.98658 -3.02132,8.24076 -5.65228,13.89817 l -4.78359,10.28619 3.85482,7.51308 c 2.12013,4.1322 4.65794,7.838 5.63957,8.23512 2.08792,0.84466 21.77287,-18.21014 34.07816,-32.98726 19.34186,-23.22718 30.31713,-42.43847 39.58118,-69.2836 4.79768,-13.90259 6.80251,-18.13215 8.7257,-18.40844 1.98749,-0.28553 4.46618,3.5256 12.15041,18.68192 15.49716,30.56655 29.96641,51.2491 66.93421,95.67679 11.89888,14.3 22.28807,27.36628 23.08711,29.03617 3.03942,6.35207 -0.50343,6.06615 -21.81516,-1.76054 -43.26311,-15.88828 -61.29009,-21.12159 -62.95348,-18.27563 -0.32147,0.55 0.53719,8.5 1.90812,17.66667 6.48787,43.3808 10.40721,87.31176 8.00403,89.71494 -2.18786,2.18786 -5.35799,-1.49753 -13.51782,-15.71494 -8.24245,-14.36138 -16.24826,-25.76314 -25.6708,-36.55994 -8.90386,-10.20248 -21.03406,-20.5691 -22.43226,-19.1709 -2.65787,2.65786 -5.51128,28.0318 -6.16658,54.83618 -0.58758,24.03518 -1.01545,28.56156 -2.76321,29.23224 -3.36509,1.29131 -14.73634,-12.28357 -23.95241,-28.59412 -10.11131,-17.89496 -11.65289,-19.48358 -13.79161,-14.21248 -11.31114,27.87752 -21.30578,37.69883 -44.51652,43.74446 -10.25227,2.67038 -12.75324,2.5329 -24.33308,-1.33748 z m 93.55603,-55.60463 c 0.33784,-1.65 0.96384,-6.9 1.39111,-11.66667 1.46764,-16.3735 6.20803,-35.98864 9.70042,-40.13912 6.78174,-8.05962 16.30943,-3.79644 36.81396,16.47246 6.49127,6.41666 12.36846,11.66666 13.06043,11.66666 0.69196,0 0.9346,-1.95 0.53919,-4.33333 -0.39542,-2.38333 -2.23527,-13.55315 -4.08856,-24.82179 -1.8533,-11.26865 -3.9423,-22.96865 -4.64223,-26 -1.78999,-7.7523 -1.63523,-11.1121 0.55045,-11.95082 2.60106,-0.99812 17.78203,1.18516 31.71279,4.56081 6.38056,1.54612 12.2316,2.60092 13.00232,2.34401 0.77072,-0.2569 -1.96392,-4.96674 -6.07699,-10.46632 -9.74377,-13.0284 -21.60306,-30.70956 -27.03338,-40.30438 -2.37771,-4.20118 -4.84887,-7.96343 -5.49147,-8.36058 -0.64259,-0.39715 -4.09407,5.17675 -7.66995,12.38643 -13.24248,26.69949 -28.65145,47.21343 -55.16121,73.43607 l -17.02768,16.84324 0.7951,10.42988 c 0.73506,9.64266 1.18753,10.90062 5.99478,16.66666 2.85983,3.43024 6.48043,8.48679 8.04576,11.23679 3.26606,5.73783 4.71367,6.25621 5.58516,2 z M 206.95269,306.74553 c 4.25946,-6.74768 4.92963,-9.01092 5.74364,-19.39723 0.50686,-6.46702 1.22586,-12.55122 1.59778,-13.52042 0.37958,-0.98918 -5.84583,-8.99135 -14.19147,-18.24178 -24.66201,-27.33572 -36.24721,-44.11102 -47.97205,-69.4633 -3.3,-7.1355 -6.75,-12.98322 -7.66667,-12.99494 -0.91666,-0.012 -1.66666,0.44645 -1.66666,1.01817 0,1.77294 -18.46756,32.27194 -26.09354,43.09325 -6.84987,9.72 -8.51804,13.2407 -6.23979,13.16921 0.55,-0.0172 5.5,-1.25696 11,-2.75491 5.49999,-1.49793 14.64999,-3.06954 20.33333,-3.49246 9.64273,-0.71756 10.33333,-0.59392 10.33333,1.85004 0,1.44045 -2.08825,15.70249 -4.64056,31.69342 -2.55231,15.99095 -4.27465,29.66647 -3.82744,30.39007 0.44721,0.7236 5.68545,-3.76225 11.64055,-9.96859 17.95688,-18.71441 25.89306,-22.90276 32.79968,-17.31012 3.58421,2.90232 6.04382,11.93682 8.79101,32.2906 2.55703,18.94484 3.03627,21.34047 4.26216,21.30566 0.53603,-0.0152 3.14454,-3.46522 5.7967,-7.66667 z m 56.48296,-118.92659 c 1.58547,-2.56534 -4.6271,-11.71208 -13.89013,-20.45035 -9.97424,-9.40918 -13.43459,-10.94182 -13.38565,-5.92872 0.0799,8.18575 8.77718,19.35647 19.30405,24.79397 6.16751,3.18573 6.89331,3.33005 7.97173,1.5851 z m 28.88859,-2.9232 c 9.54012,-5.08483 15.18573,-11.19947 17.18064,-18.60796 1.93078,-7.17043 0.21848,-9.18145 -4.9725,-5.83999 -8.64508,5.5649 -16.81804,13.48202 -20.40972,19.77082 -5.81013,10.17315 -4.02257,11.19255 8.20158,4.67713 z m 38.63172,-73.76757 c -2.38414,-3.31985 -6.99518,-8.25989 -10.24675,-10.97788 -5.73516,-4.793999 -7.395,-8.63647 -4.50284,-10.423921 2.76096,-1.70637 7.81235,0.80767 15.21289,7.571348 7.2322,6.609833 7.49366,7.084123 7.10982,12.897943 -0.21918,3.31967 -1.03746,6.24565 -1.81842,6.50218 -0.78094,0.25653 -3.37056,-2.24982 -5.7547,-5.56967 z M 212.13059,99.045927 c 0,-6.91588 3.452,-11.398954 11.30326,-14.679425 5.88806,-2.460184 8.0064,-2.426493 10.6015,0.168607 3.18153,3.18153 2.67337,4.115639 -4.90476,9.016015 -3.85,2.489591 -8.45459,6.108033 -10.23242,8.040976 -4.85312,5.27653 -6.76758,4.55625 -6.76758,-2.546173 z M 332.70646,83.672884 c -1.37725,-1.521842 -4.17024,-3.751207 -6.20665,-4.954143 -4.15331,-2.453417 -4.41175,-4.468387 -1.83144,-14.278871 3.11137,-11.82958 7.61964,-8.735045 12.02132,8.251584 2.57875,9.951716 2.66552,13.748417 0.31421,13.748417 -0.98634,0 -2.92018,-1.245145 -4.29744,-2.766987 z M 213.85143,67.070564 c 0.88581,-8.582761 4.65712,-17.121277 7.81958,-17.704149 1.68598,-0.310738 2.56411,1.257879 3.71911,6.643499 0.83161,3.877657 1.85197,8.404791 2.26748,10.060295 0.64688,2.577367 -0.14312,3.395191 -5.49631,5.689835 -8.95698,3.839413 -9.17729,3.715089 -8.30986,-4.68948 z"
     id="path3842"
     inkscape:connector-curvature="0"
     inkscape:export-xdpi="96"
     inkscape:export-ydpi="96" />
</svg>
