<?xml version="1.0" encoding="UTF-8" standalone="no"?>
<!-- Created with Inkscape (http://www.inkscape.org/) -->

<svg
   xmlns:dc="http://purl.org/dc/elements/1.1/"
   xmlns:cc="http://creativecommons.org/ns#"
   xmlns:rdf="http://www.w3.org/1999/02/22-rdf-syntax-ns#"
   xmlns:svg="http://www.w3.org/2000/svg"
   xmlns="http://www.w3.org/2000/svg"
   xmlns:sodipodi="http://sodipodi.sourceforge.net/DTD/sodipodi-0.dtd"
   xmlns:inkscape="http://www.inkscape.org/namespaces/inkscape"
   version="1.1"
   id="svg3713"
   width="541.33331"
   height="437.33334"
   viewBox="0 0 541.33331 437.33334"
   sodipodi:docname="werewolf-token.svg"
   inkscape:version="0.92.4 (5da689c313, 2019-01-14)"
   inkscape:export-filename="C:\Users\codyh\Desktop\onuw\robber-token.png"
   inkscape:export-xdpi="96"
   inkscape:export-ydpi="96">
  <metadata
     id="metadata3719">
    <rdf:RDF>
      <cc:Work
         rdf:about="">
        <dc:format>image/svg+xml</dc:format>
        <dc:type
           rdf:resource="http://purl.org/dc/dcmitype/StillImage" />
        <dc:title></dc:title>
      </cc:Work>
    </rdf:RDF>
  </metadata>
  <defs
     id="defs3717" />
  <sodipodi:namedview
     pagecolor="#ffffff"
     bordercolor="#666666"
     borderopacity="1"
     objecttolerance="10"
     gridtolerance="10"
     guidetolerance="10"
     inkscape:pageopacity="0"
     inkscape:pageshadow="2"
     inkscape:window-width="2560"
     inkscape:window-height="1377"
     id="namedview3715"
     showgrid="false"
     inkscape:zoom="1.3717872"
     inkscape:cx="211.55356"
     inkscape:cy="241.0231"
     inkscape:window-x="2552"
     inkscape:window-y="-8"
     inkscape:window-maximized="1"
     inkscape:current-layer="svg3713"
     showguides="true"
     inkscape:guide-bbox="true">
    <sodipodi:guide
       position="-270.61855,481.95876"
       orientation="0,1"
       id="guide3861"
       inkscape:locked="false" />
    <sodipodi:guide
       position="-212.37113,474.74226"
       orientation="0,1"
       id="guide3863"
       inkscape:locked="false" />
    <sodipodi:guide
       position="-194.84536,474.74226"
       orientation="0,1"
       id="guide3865"
       inkscape:locked="false" />
    <sodipodi:guide
       position="-168.5567,474.74226"
       orientation="0,1"
       id="guide3867"
       inkscape:locked="false" />
    <sodipodi:guide
       position="-108.24742,474.74226"
       orientation="0,1"
       id="guide3869"
       inkscape:locked="false" />
    <sodipodi:guide
       position="-123.71134,474.74226"
       orientation="0,1"
       id="guide3871"
       inkscape:locked="false" />
    <sodipodi:guide
       position="-103.09278,394.84536"
       orientation="1,0"
       id="guide3873"
       inkscape:locked="false" />
    <sodipodi:guide
       position="-112.37113,343.29897"
       orientation="1,0"
       id="guide3875"
       inkscape:locked="false" />
  </sodipodi:namedview>
  <rect
     style="fill:none"
     id="rect3755"
     width="345.34924"
     height="350.3634"
     x="89.627838"
     y="44.349739"
     ry="0" />
  <rect
     style="fill:none"
     id="rect3757"
     width="84.613693"
     height="41.366695"
     x="319.65173"
     y="219.21805" />
  <rect
     style="fill:none"
     id="rect3759"
     width="350.99014"
     height="347.22955"
     x="89.627838"
     y="44.349739" />
  <path
     style="fill:#000000;stroke-width:1.33333337"
     d="m 300.0828,376.44606 c -12.55227,-1.81769 -20.5394,-3.90116 -33.59795,-8.76415 -32.88111,-12.24488 -53.48742,-27.26578 -95.06061,-69.29418 -25.43603,-25.71455 -36.08437,-34.59883 -45.20707,-37.71788 -7.16337,-2.44915 -18.18194,-1.89004 -25.59443,1.29873 -3.641599,1.56656 -6.892389,2.577 -7.223989,2.2454 -1.28199,-1.28199 6.42648,-21.8276 13.059869,-34.80883 2.9178,-5.70997 5.05056,-10.63629 4.73949,-10.94737 -0.31108,-0.31107 -3.23928,1.20816 -6.50712,3.37606 -3.26783,2.16792 -6.399569,3.94423 -6.959409,3.94738 -0.55984,0.003 -0.0844,-2.2443 1.05646,-4.9943 4.176229,-10.06629 10.894729,-19.60121 22.425199,-31.82593 12.0082,-12.73119 12.61026,-15.52979 2.06602,-9.6036 -7.90752,4.44428 -7.8195,1.82747 0.215,-6.39208 7.86811,-8.04933 17.899,-15.37983 28.92187,-21.13587 3.85,-2.01042 7,-3.96674 7,-4.34736 0,-0.38062 -3.3,-0.41837 -7.33333,-0.0839 -4.03333,0.33444 -7.33333,0.11884 -7.33333,-0.47914 0,-2.81262 33.48238,-15.79882 40.73418,-15.79882 1.67624,0 3.99334,-0.36287 5.14911,-0.80638 3.93235,-1.50899 0.64673,-3.19362 -6.22865,-3.19362 -9.79191,0 -6.64573,-2.26846 8.45768,-6.09813 13.99286,-3.54807 41.60246,-6.76451 46.82165,-5.45458 2.17349,0.54551 4.71746,2.99162 6.80705,6.54521 1.83511,3.12079 5.56023,7.8903 8.27805,10.5989 6.16798,6.14705 20.64759,11.57626 20.64759,7.74193 0,-0.73333 -0.80781,-1.33333 -1.79515,-1.33333 -5.98548,0 -18.1092,-10.11671 -22.86856,-19.0828 -2.32261,-4.37553 -2.40798,-5.17979 -0.66666,-6.28058 1.09837,-0.69435 3.94704,-1.27164 6.33037,-1.28287 6.68996,-0.0315 5.13292,-1.96888 -2.94393,-3.66302 -6.85747,-1.43836 -8.22271,-2.47504 -23.66667,-17.970736 -9.15992,-9.19062 -21.8404,-20.25097 -28.74694,-25.07409 -6.79666,-4.74637 -11.67752,-8.85644 -10.84636,-9.13349 3.90969,-1.30323 46.25725,7.28877 62.04439,12.58834 21.09783,7.08231 46.44839,22.95492 56.88129,35.614786 8.73547,10.60009 11.43687,12.95112 14.88122,12.95112 1.86834,0 3.38657,-0.45 3.37382,-1 -0.0133,-0.55 -3.59733,-4.86541 -7.96574,-9.58981 -4.36842,-4.7244 -7.71374,-8.818636 -7.43407,-9.098316 1.34313,-1.34312 18.09145,9.186016 26.54156,16.685826 2.81521,2.49862 5.47028,4.19123 5.90016,3.76135 0.42987,-0.42987 -1.39523,-3.90478 -4.05577,-7.72201 -2.66055,-3.81723 -4.617,-7.16078 -4.34768,-7.43009 1.2148,-1.21481 7.57533,3.63083 17.71805,13.49812 6.05,5.88571 11,10.30936 11,9.83034 0,-0.47903 -1.19776,-2.83546 -2.66168,-5.23651 -5.91093,-9.69482 -2.13543,-8.49543 7.02077,2.23033 6.74411,7.90019 9.86266,9.93739 8.07306,5.27375 -0.3946,-1.0283 -0.0202,-1.86964 0.8319,-1.86964 0.85215,0 3.06463,3.45 4.91661,7.66666 1.85199,4.21667 4.87728,9.26036 6.72286,11.2082 2.37465,2.50623 3.09658,4.35767 2.46953,6.33334 -0.7776,2.44998 -0.34455,2.79241 3.53709,2.79678 2.43276,0.003 6.3877,1.20274 8.78875,2.66667 2.40105,1.46392 6.48219,2.66168 9.06917,2.66168 2.58699,0 6.9225,1.13384 9.63444,2.51964 10.31442,5.27063 19.79495,9.31789 25.0901,10.711 5.31905,1.39941 12.50739,5.95735 12.50739,7.93061 0,0.53223 -6.59769,8.13868 -14.66154,16.90323 -15.36709,16.70236 -24.26603,23.23936 -31.66151,23.25797 -3.2315,0.008 -5.24533,1.10502 -7.97578,4.34422 -7.323,8.68744 -27.89548,29 -29.37109,29 -1.32143,0 12.61389,-25.20971 15.80938,-28.6 1.47611,-1.56611 1.57861,-6.06667 0.13816,-6.06667 -0.58065,0 -3.70557,2.7 -6.94428,6 -8.08504,8.23805 -9.98761,7.81124 -5.94344,-1.33333 3.65205,-8.25796 2.88932,-9.19158 -2.72322,-3.33334 -2.10774,2.2 -4.2629,4 -4.78924,4 -0.52636,0 -0.63511,-2.4 -0.24166,-5.33333 0.85576,-6.38023 -0.0379,-6.64461 -4.50704,-1.33333 -4.48477,5.32984 -6.30496,5.13424 -5.23621,-0.5627 1.07861,-5.74945 -1.07005,-7.26538 -3.98729,-2.81313 -2.88971,4.41025 -5.90523,4.37211 -5.90523,-0.0747 0,-3.31849 -0.21683,-3.41444 -5.66667,-2.50741 -9.77157,1.62628 -19.16305,5.84512 -25.57417,11.48841 -7.40939,6.52202 -10.16656,11.45051 -10.45521,18.68887 -0.1868,4.68446 0.4602,6.01919 4.88201,10.07148 4.54876,4.16863 5.65609,4.58203 10.28903,3.84119 5.63369,-0.90087 6.27236,-0.35555 3.19168,2.72515 -3.31471,3.3147 -2.34896,4.66249 2.66666,3.72154 5.2098,-0.97736 6.4035,1.06463 2,3.42131 -2.78177,1.48876 -3.5476,4.63151 -1.44522,5.93085 0.6718,0.41519 2.7718,0.16546 4.66666,-0.55498 4.30932,-1.6384 4.75747,1.02328 0.77856,4.62413 -3.00449,2.71904 -3.58094,7.33333 -0.91612,7.33333 0.9628,0 3.47506,-1.8 5.58279,-4 3.85359,-4.02228 6,-5.02436 6,-2.80117 0,0.65935 -2.36409,4.70935 -5.25355,9 -3.57506,5.30873 -4.81469,8.22717 -3.87994,9.13451 0.9282,0.90098 5.23825,-2.72544 13.292,-11.18376 6.55513,-6.88442 12.26268,-12.17283 12.68345,-11.75206 0.9572,0.9572 -5.11965,14.37498 -8.94067,19.7411 -2.66036,3.73614 -2.70413,4.1676 -0.65277,6.43433 2.76903,3.05975 4.24287,11.42663 2.23176,12.66957 -0.81415,0.50318 -1.48028,3.04364 -1.48028,5.6455 0,3.65684 -0.45389,4.55645 -1.99965,3.96329 -1.38895,-0.533 -2.62999,0.74129 -4.06363,4.17248 -3.6982,8.85103 -10.76444,14.08901 -8.95971,6.64155 0.65619,-2.70782 0.28839,-2.58491 -3.79184,1.26709 -4.81314,4.54392 -12.68346,8.40091 -17.14234,8.40091 -2.84756,0 -3.64486,-1.9312 -1.37616,-3.33334 2.19005,-1.35353 1.594,-5.05745 -0.66667,-4.14265 -1.1,0.44513 -2.93048,1.18521 -4.06773,1.64463 -1.66748,0.67362 -1.89782,0.15833 -1.18996,-2.662 0.83396,-3.32272 0.67092,-3.45595 -3.2656,-2.66866 -4.01156,0.80232 -5.79151,-0.99533 -2.81004,-2.83798 1.89074,-1.16855 1.61801,-16.43436 -0.39304,-22 -2.76837,-7.66156 -4.65912,-10.2754 -9.67536,-13.37562 -3.79821,-2.34741 -6.13097,-2.81638 -11.46147,-2.3042 -8.43837,0.81083 -11.87093,4.03886 -12.76921,12.00838 -0.91171,8.08868 2.21067,14.27756 12.58976,24.95429 4.60679,4.73889 8.37599,8.78889 8.37599,9 0,0.21109 -0.9,0.38381 -2,0.38381 -1.1,0 -2,0.30102 -2,0.66891 0,2.24629 15.53541,30.11664 19.45139,34.89559 l 4.72714,5.7688 -3.75594,-0.18774 c -2.06576,-0.10325 -6.75593,-0.62216 -10.42259,-1.15313 z M 368.74946,156.6091 c 0,-0.6478 -1.05,-1.49046 -2.33333,-1.87256 -1.28334,-0.38211 -6.53334,-2.18864 -11.66667,-4.01451 -10.83765,-3.85484 -25.67559,-7.03729 -26.93569,-5.7772 -0.828,0.82801 0.97736,2.60185 6.9594,6.83791 1.4797,1.04782 8.01212,2.50982 14.51646,3.2489 6.50436,0.73908 12.14368,1.66136 12.53186,2.04952 1.17936,1.17938 6.92797,0.78766 6.92797,-0.47206 z"
     id="path3944"
     inkscape:connector-curvature="0"
     inkscape:export-xdpi="96"
     inkscape:export-ydpi="96" />
</svg>
