<?xml version="1.0" encoding="UTF-8" standalone="no"?>
<!-- Created with Inkscape (http://www.inkscape.org/) -->

<svg
   xmlns:dc="http://purl.org/dc/elements/1.1/"
   xmlns:cc="http://creativecommons.org/ns#"
   xmlns:rdf="http://www.w3.org/1999/02/22-rdf-syntax-ns#"
   xmlns:svg="http://www.w3.org/2000/svg"
   xmlns="http://www.w3.org/2000/svg"
   xmlns:sodipodi="http://sodipodi.sourceforge.net/DTD/sodipodi-0.dtd"
   xmlns:inkscape="http://www.inkscape.org/namespaces/inkscape"
   version="1.1"
   id="svg3713"
   width="541.33331"
   height="437.33334"
   viewBox="0 0 541.33331 437.33334"
   sodipodi:docname="robber-token.svg"
   inkscape:version="0.92.4 (5da689c313, 2019-01-14)"
   inkscape:export-filename="C:\Users\codyh\Desktop\onuw\robber-token.png"
   inkscape:export-xdpi="96"
   inkscape:export-ydpi="96">
  <metadata
     id="metadata3719">
    <rdf:RDF>
      <cc:Work
         rdf:about="">
        <dc:format>image/svg+xml</dc:format>
        <dc:type
           rdf:resource="http://purl.org/dc/dcmitype/StillImage" />
        <dc:title></dc:title>
      </cc:Work>
    </rdf:RDF>
  </metadata>
  <defs
     id="defs3717" />
  <sodipodi:namedview
     pagecolor="#ffffff"
     bordercolor="#666666"
     borderopacity="1"
     objecttolerance="10"
     gridtolerance="10"
     guidetolerance="10"
     inkscape:pageopacity="0"
     inkscape:pageshadow="2"
     inkscape:window-width="2560"
     inkscape:window-height="1377"
     id="namedview3715"
     showgrid="false"
     inkscape:zoom="1.94"
     inkscape:cx="138.13709"
     inkscape:cy="205.78004"
     inkscape:window-x="2552"
     inkscape:window-y="-8"
     inkscape:window-maximized="1"
     inkscape:current-layer="svg3713"
     showguides="true"
     inkscape:guide-bbox="true">
    <sodipodi:guide
       position="-270.61855,481.95876"
       orientation="0,1"
       id="guide3861"
       inkscape:locked="false" />
    <sodipodi:guide
       position="-212.37113,474.74226"
       orientation="0,1"
       id="guide3863"
       inkscape:locked="false" />
    <sodipodi:guide
       position="-194.84536,474.74226"
       orientation="0,1"
       id="guide3865"
       inkscape:locked="false" />
    <sodipodi:guide
       position="-168.5567,474.74226"
       orientation="0,1"
       id="guide3867"
       inkscape:locked="false" />
    <sodipodi:guide
       position="-108.24742,474.74226"
       orientation="0,1"
       id="guide3869"
       inkscape:locked="false" />
    <sodipodi:guide
       position="-123.71134,474.74226"
       orientation="0,1"
       id="guide3871"
       inkscape:locked="false" />
    <sodipodi:guide
       position="-103.09278,394.84536"
       orientation="1,0"
       id="guide3873"
       inkscape:locked="false" />
    <sodipodi:guide
       position="-112.37113,343.29897"
       orientation="1,0"
       id="guide3875"
       inkscape:locked="false" />
  </sodipodi:namedview>
  <rect
     style="fill:none"
     id="rect3755"
     width="345.34924"
     height="350.3634"
     x="89.627838"
     y="44.349739"
     ry="0" />
  <rect
     style="fill:none"
     id="rect3757"
     width="84.613693"
     height="41.366695"
     x="319.65173"
     y="219.21805" />
  <rect
     style="fill:none"
     id="rect3759"
     width="350.99014"
     height="347.22955"
     x="89.627838"
     y="44.349739" />
  <path
     style="fill:#000000;stroke-width:1.33333337"
     d="m 125.22265,331.36427 c 0.0129,-43.84958 0.0475,-45.56587 3.17005,-52.15979 3.86499,-8.16166 10.15466,-13.15555 18.31596,-16.76015 3.39114,-1.49776 18.69115,-6.33376 34,-10.74666 15.30886,-4.41289 29.33429,-9.11084 31.16762,-10.43986 4.79366,-3.47506 7.99554,-10.6028 7.99794,-17.80427 0.001,-5.76461 -0.44914,-6.61379 -5.87407,-11.05912 -9.74304,-7.98368 -10.6932,-11.19288 -11.4572,-38.69681 l -0.66667,-24.00001 -4.1307,-1.33524 c -8.00455,-2.58745 -8.6721,-3.92516 -8.25156,-16.5353 l 0.38226,-11.46279 5,-2.44314 5,-2.44315 v -9.26558 c 0,-18.182837 8.23524,-33.999408 22.74872,-43.691146 12.08396,-8.06935 18.73284,-9.490317 44.40647,-9.490317 19.29836,0 23.04969,0.360479 29.7948,2.863089 13.03389,4.835912 25.01542,14.756507 30.40161,25.172231 2.80873,5.431483 5.92907,20.232393 5.95859,28.263773 0.0208,5.65993 0.43484,6.51199 4.08042,8.3972 4.93691,2.55297 6.60939,6.57879 6.60939,15.90946 0,8.34773 -2.60708,12.37855 -9.43332,14.58489 l -4.56668,1.47602 -0.66667,24.72975 c -0.74724,27.7186 -0.85929,28.0892 -11.50722,38.0582 -4.97507,4.65784 -5.82183,6.21596 -5.79683,10.66667 0.046,8.19108 4.25311,15.95504 10.32384,19.05209 2.87111,1.46474 18.0662,6.34416 33.76686,10.84316 30.90622,8.85615 38.38444,12.42468 44.48506,21.22787 6.8492,9.8834 7.39496,14.28452 7.39496,59.63417 v 41.7881 H 266.54295 125.20962 l 0.0131,-44.33334 z m 277.71887,12.38677 -273.30235,0.0193 v 18.22431 l 273.48459,0.0263 z m 0.18224,-32.78453 c 0,-0.2472 -273.48459,-0.23047 -273.48459,-0.23047 v 17.53256 l 273.48459,-0.008 z m -3.33456,-33.2689 -266.31623,0.0343 c -2.50824,1.09159 -3.8338,16.28135 -3.71231,17.98736 0,0 273.3631,0.0105 273.3631,0.0536 0.57381,-7.06182 -1.35419,-12.29555 -4.55879,-18.26857 z M 285.20974,223.77866 c 19.08344,-10.79379 30.64678,-18.69024 33.89828,-23.14869 2.01415,-2.76179 2.85554,-6.35098 3.23078,-13.78179 0.28952,-5.73347 -0.0731,-10.62797 -0.8446,-11.39945 -0.74359,-0.74359 -7.31071,-1.56239 -14.59359,-1.81955 -16.05241,-0.56683 -26.29371,-3.97428 -34.39839,-11.44492 -3.07488,-2.83432 -5.9736,-5.15332 -6.44158,-5.15332 -0.46799,0 -3.18202,2.33112 -6.03116,5.18027 -7.62261,7.62261 -17.64912,10.92592 -34.60336,11.40034 -10.00835,0.28006 -14.15685,0.89844 -15.00428,2.23658 -1.5774,2.4908 -1.50755,14.0657 0.12027,19.92528 2.08882,7.51913 8.5969,12.48486 38.66766,29.50385 15.46525,8.75277 18.06705,8.64447 36,-1.4986 z m -35.01243,-64.27937 c 4.48849,-2.77406 6.98612,-8.36133 4.74121,-10.60625 -0.72392,-0.72391 -8.95585,-1.11434 -19.02617,-0.90238 -15.1583,0.31906 -17.9634,0.71222 -19.21048,2.69254 -1.17412,1.86448 -0.78843,2.99083 1.96809,5.74735 7.50097,7.50096 22.06251,8.91832 31.52735,3.06874 z m 59.99999,0 c 4.4885,-2.77406 6.98612,-8.36133 4.74122,-10.60625 -0.72392,-0.72391 -8.95586,-1.11434 -19.02618,-0.90238 -15.15829,0.31906 -17.9634,0.71222 -19.21048,2.69254 -1.17412,1.86448 -0.78842,2.99083 1.9681,5.74735 7.50097,7.50096 22.0625,8.91832 31.52734,3.06874 z M 206.693,140.03094 c 1.65306,-4.27633 0.8751,-15.84153 -1.20558,-17.9222 -0.78754,-0.78754 -2.37222,-1.07105 -3.52151,-0.63002 -1.63553,0.62761 -2.08963,2.93573 -2.08963,10.62148 0,5.4008 0.4,10.21963 0.8889,10.70852 1.94068,1.94068 4.58238,0.70278 5.92782,-2.77778 z m 14.24995,2.06666 c 1.85053,-1.85053 2.14135,-16.8139 0.38081,-19.59428 -0.64809,-1.02353 -2.1389,-1.49236 -3.31292,-1.04185 -1.68982,0.64845 -2.13456,2.86503 -2.13456,10.63873 0,11.47489 1.20719,13.85688 5.06667,9.9974 z m 15.98979,-9.52719 c 0.32365,-8.50841 0.0181,-10.38913 -1.80124,-11.08728 -1.23454,-0.47374 -2.70542,-0.0284 -3.36936,1.02019 -1.77184,2.79825 -1.46891,17.74457 0.39748,19.61095 3.12609,3.1261 4.38705,0.60482 4.77312,-9.54386 z m 14.67688,9.52719 c 0.93216,-0.93216 1.6,-5.40189 1.6,-10.70851 0,-7.22242 -0.45407,-9.28275 -2.19282,-9.94997 -3.33236,-1.27875 -5.80718,3.23904 -5.80718,10.60098 0,6.33477 1.72602,11.6575 3.78024,11.6575 0.56086,0 1.73976,-0.72 2.61976,-1.6 z m 15.68347,0.13159 c 0.49915,-0.80763 1.14246,-4.88215 1.42956,-9.0545 0.58066,-8.43785 -1.56722,-13.17573 -5.32022,-11.73557 -1.7602,0.67545 -2.19282,2.77877 -2.19282,10.66108 0,5.4008 0.4,10.21963 0.8889,10.70852 1.36854,1.36855 4.18478,1.05436 5.19458,-0.57953 z m 14.98319,-0.13159 c 1.85053,-1.85053 2.14135,-16.8139 0.38081,-19.59428 -0.64809,-1.02353 -2.1389,-1.49236 -3.31292,-1.04185 -1.68982,0.64845 -2.13456,2.86503 -2.13456,10.63873 0,11.47489 1.20719,13.85688 5.06667,9.9974 z m 15.98979,-9.52719 c 0.32365,-8.50841 0.0181,-10.38913 -1.80124,-11.08728 -1.23454,-0.47374 -2.70542,-0.0284 -3.36936,1.02019 -1.77184,2.79825 -1.46891,17.74457 0.39748,19.61095 3.12609,3.1261 4.38705,0.60482 4.77312,-9.54386 z m 14.67688,9.52719 c 0.93216,-0.93216 1.6,-5.40189 1.6,-10.70851 0,-7.22242 -0.45407,-9.28275 -2.19282,-9.94997 -3.33236,-1.27875 -5.80718,3.23904 -5.80718,10.60098 0,6.33477 1.72602,11.6575 3.78024,11.6575 0.56086,0 1.73976,-0.72 2.61976,-1.6 z m 15.6,-9.75159 c 0,-9.75952 -0.2226,-10.64841 -2.66667,-10.64841 -2.37052,0 -2.71096,1.02184 -3.06551,9.20105 -0.46524,10.73295 0.19223,13.16267 3.39482,12.5459 1.9949,-0.38418 2.33736,-2.01027 2.33736,-11.09854 z"
     id="path3855"
     inkscape:connector-curvature="0"
     sodipodi:nodetypes="cccscccscsccccsssssscsscscccsssccccccccccccccccccccccccscsscsccccccscccccsccccsccscssscssccssccsscccsccscssscssscssssssssssscss" />
</svg>
