<?xml version="1.0" encoding="UTF-8" standalone="no"?>
<!-- Created with Inkscape (http://www.inkscape.org/) -->

<svg
   xmlns:dc="http://purl.org/dc/elements/1.1/"
   xmlns:cc="http://creativecommons.org/ns#"
   xmlns:rdf="http://www.w3.org/1999/02/22-rdf-syntax-ns#"
   xmlns:svg="http://www.w3.org/2000/svg"
   xmlns="http://www.w3.org/2000/svg"
   xmlns:sodipodi="http://sodipodi.sourceforge.net/DTD/sodipodi-0.dtd"
   xmlns:inkscape="http://www.inkscape.org/namespaces/inkscape"
   version="1.1"
   id="svg3713"
   width="541.33331"
   height="437.33334"
   viewBox="0 0 541.33331 437.33334"
   sodipodi:docname="seer-token.svg"
   inkscape:version="0.92.4 (5da689c313, 2019-01-14)"
   inkscape:export-filename="C:\Users\codyh\Desktop\onuw\robber-token.png"
   inkscape:export-xdpi="96"
   inkscape:export-ydpi="96">
  <metadata
     id="metadata3719">
    <rdf:RDF>
      <cc:Work
         rdf:about="">
        <dc:format>image/svg+xml</dc:format>
        <dc:type
           rdf:resource="http://purl.org/dc/dcmitype/StillImage" />
        <dc:title></dc:title>
      </cc:Work>
    </rdf:RDF>
  </metadata>
  <defs
     id="defs3717" />
  <sodipodi:namedview
     pagecolor="#ffffff"
     bordercolor="#666666"
     borderopacity="1"
     objecttolerance="10"
     gridtolerance="10"
     guidetolerance="10"
     inkscape:pageopacity="0"
     inkscape:pageshadow="2"
     inkscape:window-width="2560"
     inkscape:window-height="1377"
     id="namedview3715"
     showgrid="false"
     inkscape:zoom="1.94"
     inkscape:cx="138.13709"
     inkscape:cy="205.78004"
     inkscape:window-x="2552"
     inkscape:window-y="-8"
     inkscape:window-maximized="1"
     inkscape:current-layer="svg3713"
     showguides="true"
     inkscape:guide-bbox="true">
    <sodipodi:guide
       position="-270.61855,481.95876"
       orientation="0,1"
       id="guide3861"
       inkscape:locked="false" />
    <sodipodi:guide
       position="-212.37113,474.74226"
       orientation="0,1"
       id="guide3863"
       inkscape:locked="false" />
    <sodipodi:guide
       position="-194.84536,474.74226"
       orientation="0,1"
       id="guide3865"
       inkscape:locked="false" />
    <sodipodi:guide
       position="-168.5567,474.74226"
       orientation="0,1"
       id="guide3867"
       inkscape:locked="false" />
    <sodipodi:guide
       position="-108.24742,474.74226"
       orientation="0,1"
       id="guide3869"
       inkscape:locked="false" />
    <sodipodi:guide
       position="-123.71134,474.74226"
       orientation="0,1"
       id="guide3871"
       inkscape:locked="false" />
    <sodipodi:guide
       position="-103.09278,394.84536"
       orientation="1,0"
       id="guide3873"
       inkscape:locked="false" />
    <sodipodi:guide
       position="-112.37113,343.29897"
       orientation="1,0"
       id="guide3875"
       inkscape:locked="false" />
  </sodipodi:namedview>
  <rect
     style="fill:none"
     id="rect3755"
     width="345.34924"
     height="350.3634"
     x="89.627838"
     y="44.349739"
     ry="0" />
  <rect
     style="fill:none"
     id="rect3757"
     width="84.613693"
     height="41.366695"
     x="319.65173"
     y="219.21805" />
  <rect
     style="fill:none"
     id="rect3759"
     width="350.99014"
     height="347.22955"
     x="89.627838"
     y="44.349739" />
  <path
     style="fill:#000000;stroke-width:1.33333337"
     d="M 255.38143,330.49833 C 194.92906,325.53955 133.89972,293.64049 69.048109,233.10487 54.408778,219.43982 54.04811,218.96454 54.04811,213.33826 c 0,-5.62632 0.385261,-6.13399 16.028622,-21.12119 67.427898,-64.59966 139.691348,-95.326805 209.626438,-89.13525 16.35646,1.44808 38.20127,5.79902 51.01003,10.15991 43.39864,14.77558 87.17372,42.92685 128.20541,82.44745 17.28477,16.64823 17.32744,16.93441 4.66316,31.27489 -47.02115,53.24472 -104.18455,89.64888 -157.37888,100.22579 -12.70777,2.52676 -39.27037,4.25597 -50.82146,3.30847 z m 68.6825,-31.77238 c 25.03576,-8.37749 52.07832,-23.81374 77.31749,-44.13385 15.6946,-12.63575 42,-38.12092 42,-40.69039 0,-4.34797 -40.21797,-37.14603 -62.82956,-51.23796 -23.13034,-14.41523 -58.27053,-30.02455 -67.59221,-30.02455 -3.14737,0 -2.72641,0.54447 3.77291,4.87989 10.07817,6.72272 23.65067,21.00943 29.68298,31.24497 2.76876,4.698 6.63095,13.34181 8.58263,19.20848 3.10576,9.33577 3.5514,12.82937 3.57168,28 0.026,19.44604 -1.61939,26.86256 -9.46573,42.66667 -8.0322,16.17844 -21.90697,30.88582 -37.38936,39.63304 -3.85,2.17517 -7,4.19757 -7,4.49424 0,1.54156 7.09495,0.06 19.34917,-4.04054 z m -111.97409,-3.82358 c -18.67501,-15.04551 -28.95482,-28.45446 -35.44245,-46.23096 -7.24648,-19.85582 -7.56022,-42.97799 -0.84864,-62.54166 3.80896,-11.10279 5.7498,-12.31863 13.18144,-8.25755 9.70445,5.30308 9.76477,5.43819 6.38265,14.29547 -3.69712,9.68218 -5.02173,29.7044 -2.70381,40.86971 0.88141,4.2458 3.9344,12.37847 6.7844,18.0726 11.81508,23.60579 35.09061,39.00204 62.20165,41.145 35.79801,2.82963 70.87028,-23.80641 78.38505,-59.53041 5.41617,-25.74755 -1.65934,-49.09159 -20.64328,-68.10782 -22.4658,-22.50401 -52.85621,-28.66013 -81.75837,-16.56161 -13.10881,5.48739 -12.1917,5.63047 -17.771,-2.77254 l -5.05642,-7.61555 2.79876,-2.18059 c 1.53933,-1.19932 3.9199,-2.95399 5.2902,-3.89925 4.34182,-2.99514 -8.2222,-0.87743 -22.25136,3.75053 -34.82292,11.48746 -78.02915,38.66268 -111.257218,69.97692 l -8,7.53923 9.941825,9.36657 c 33.059473,31.14664 77.992113,60.58553 111.433363,73.00872 13.61436,5.05764 15.91653,4.97703 9.33321,-0.32681 z m 41.65514,-20.33647 c -11.36256,-2.75439 -20.66148,-8.00924 -29.04806,-16.41515 -13.16272,-13.19308 -19.32225,-31.95549 -16.32294,-49.72098 1.92086,-11.37765 3.77964,-15.79057 6.65118,-15.79057 1.30703,0 12.23858,5.12152 24.29232,11.38117 12.05376,6.25964 22.69055,11.20964 23.6373,11 1.06133,-0.23502 -3.88984,-9.07243 -12.91259,-23.04783 -8.04868,-12.46667 -14.64,-23.14987 -14.64736,-23.74043 -0.0251,-2.01089 14.56401,-7.75568 23.05149,-9.07707 24.4024,-3.79909 50.09316,10.10026 61.03156,33.01959 8.76276,18.36071 6.46519,43.4641 -5.42652,59.29047 -9.59979,12.77611 -20.82504,19.92405 -36.66993,23.35045 -9.9106,2.14314 -13.94117,2.10056 -23.63645,-0.24965 z"
     id="path3888"
     inkscape:connector-curvature="0"
     inkscape:export-xdpi="96"
     inkscape:export-ydpi="96" />
</svg>
