<?xml version="1.0" encoding="UTF-8" standalone="no"?>
<!-- Created with Inkscape (http://www.inkscape.org/) -->

<svg
   xmlns:dc="http://purl.org/dc/elements/1.1/"
   xmlns:cc="http://creativecommons.org/ns#"
   xmlns:rdf="http://www.w3.org/1999/02/22-rdf-syntax-ns#"
   xmlns:svg="http://www.w3.org/2000/svg"
   xmlns="http://www.w3.org/2000/svg"
   xmlns:sodipodi="http://sodipodi.sourceforge.net/DTD/sodipodi-0.dtd"
   xmlns:inkscape="http://www.inkscape.org/namespaces/inkscape"
   version="1.1"
   id="svg3713"
   width="541.33331"
   height="437.33334"
   viewBox="0 0 541.33331 437.33334"
   sodipodi:docname="troublemaker-token.svg"
   inkscape:version="0.92.4 (5da689c313, 2019-01-14)"
   inkscape:export-filename="C:\Users\codyh\Desktop\onuw\robber-token.png"
   inkscape:export-xdpi="96"
   inkscape:export-ydpi="96">
  <metadata
     id="metadata3719">
    <rdf:RDF>
      <cc:Work
         rdf:about="">
        <dc:format>image/svg+xml</dc:format>
        <dc:type
           rdf:resource="http://purl.org/dc/dcmitype/StillImage" />
        <dc:title></dc:title>
      </cc:Work>
    </rdf:RDF>
  </metadata>
  <defs
     id="defs3717" />
  <sodipodi:namedview
     pagecolor="#ffffff"
     bordercolor="#666666"
     borderopacity="1"
     objecttolerance="10"
     gridtolerance="10"
     guidetolerance="10"
     inkscape:pageopacity="0"
     inkscape:pageshadow="2"
     inkscape:window-width="2560"
     inkscape:window-height="1377"
     id="namedview3715"
     showgrid="false"
     inkscape:zoom="3.88"
     inkscape:cx="433.58967"
     inkscape:cy="27.088817"
     inkscape:window-x="2552"
     inkscape:window-y="-8"
     inkscape:window-maximized="1"
     inkscape:current-layer="svg3713"
     showguides="true"
     inkscape:guide-bbox="true">
    <sodipodi:guide
       position="-270.61855,481.95876"
       orientation="0,1"
       id="guide3861"
       inkscape:locked="false" />
    <sodipodi:guide
       position="-212.37113,474.74226"
       orientation="0,1"
       id="guide3863"
       inkscape:locked="false" />
    <sodipodi:guide
       position="-194.84536,474.74226"
       orientation="0,1"
       id="guide3865"
       inkscape:locked="false" />
    <sodipodi:guide
       position="-168.5567,474.74226"
       orientation="0,1"
       id="guide3867"
       inkscape:locked="false" />
    <sodipodi:guide
       position="-108.24742,474.74226"
       orientation="0,1"
       id="guide3869"
       inkscape:locked="false" />
    <sodipodi:guide
       position="-123.71134,474.74226"
       orientation="0,1"
       id="guide3871"
       inkscape:locked="false" />
    <sodipodi:guide
       position="-103.09278,394.84536"
       orientation="1,0"
       id="guide3873"
       inkscape:locked="false" />
    <sodipodi:guide
       position="-112.37113,343.29897"
       orientation="1,0"
       id="guide3875"
       inkscape:locked="false" />
  </sodipodi:namedview>
  <rect
     style="fill:none"
     id="rect3755"
     width="345.34924"
     height="350.3634"
     x="89.627838"
     y="44.349739"
     ry="0" />
  <rect
     style="fill:none"
     id="rect3757"
     width="84.613693"
     height="41.366695"
     x="319.65173"
     y="219.21805" />
  <rect
     style="fill:none"
     id="rect3759"
     width="350.99014"
     height="347.22955"
     x="89.627838"
     y="44.349739" />
  <path
     style="fill:#000000;stroke-width:1.33333337"
     d="m 249.83505,377.91455 c -31.6064,-9.06869 -48.3422,-18.21775 -69.17638,-37.81705 -14.86472,-13.98366 -26.7088,-30.13619 -36.1048,-49.23839 -9.66388,-19.64683 -11.8358,-25.98959 -17.57775,-51.33333 -2.3004,-10.15348 -2.32342,-59.81439 -0.0318,-68.66667 0.94919,-3.66667 2.35138,-9.06667 3.11597,-12 0.76459,-2.93334 3.42671,-10.45592 5.91581,-16.71686 2.48911,-6.26094 4.52565,-11.75426 4.52565,-12.2074 0,-0.45312 -6.34236,-13.76928 -14.09414,-29.59145 -7.75177,-15.822191 -13.71637,-29.378866 -13.25464,-30.125951 0.46172,-0.747084 1.64201,-1.358336 2.62286,-1.358336 0.98085,0 12.90915,5.4 26.50732,12 13.59819,6.6 25.127,12.000003 25.61958,12.000003 0.49258,0 3.67888,-2.2969 7.08065,-5.104212 14.92748,-12.318918 30.56314,-20.738262 49.51837,-26.66419 23.39544,-7.314059 50.66856,-10.744089 66.71924,-8.391011 5.47109,0.802078 12.64742,1.722496 15.94742,2.045375 22.43502,2.195084 51.33324,13.74951 70.55603,28.210527 5.2909,3.980263 10.15278,7.236842 10.80418,7.236842 0.65142,0 11.02947,-4.8 23.06238,-10.666667 12.03289,-5.866667 22.86035,-10.666667 24.06103,-10.666667 4.09006,0 2.24855,5.496361 -9.92151,29.612823 l -12.10456,23.986654 4.85596,9.95848 c 9.37296,19.2218 12.4219,31.67148 16.22361,66.24553 2.0497,18.64074 -5.69743,59.46427 -15.59856,82.19651 -22.0902,50.71745 -61.42913,85.15413 -110.95769,97.13059 -14.41304,3.45778 -45.18847,4.2811 -58.3142,-0.0752 z m 54.66667,-29.65984 c 20.20813,-4.733 39.06032,-15.61148 55.52361,-32.03943 26.1243,-26.06818 38.87984,-54.36341 44.5996,-98.93398 2.0175,-15.72123 0.10666,-33.83698 -5.66996,-53.75552 -1.85391,-6.39249 -2.91475,-6.6571 -5.14103,-1.28238 -2.54952,6.15507 -4.87673,6.69091 -14.64556,3.37215 -10.76503,-3.65721 -17.53107,-7.96072 -25.60765,-16.28766 -9.62631,-9.92466 -16.86936,-27.96026 -13.37193,-33.29681 0.53877,-0.82208 4.85574,-3.4444 9.59326,-5.82738 l 8.61368,-4.33268 -3.28035,-2.70925 c -5.76665,-4.762684 -26.91019,-13.907131 -38.61367,-16.700162 -19.38451,-4.626106 -35.60296,-5.994575 -50.33333,-4.246991 -12.21288,1.448913 -33.21522,5.91508 -37.66667,8.009849 -1.1,0.51764 -5.6,2.57365 -10,4.56892 -9.27845,4.20748 -20.66666,11.211024 -20.66666,12.709624 0,0.56792 1.82455,1.78833 4.05457,2.71203 2.23001,0.9237 5.57006,2.87156 7.42234,4.32856 2.97851,2.3429 3.26088,3.28481 2.44288,8.14897 -3.53526,21.02216 -26.83473,43.19773 -46.50018,44.25713 l -6.59384,0.35522 -1.62033,7.11043 c -8.7693,38.48192 0.72716,86.59928 23.88916,121.04345 8.30209,12.34603 24.14246,28.43723 35.57206,36.13535 15.03664,10.12753 33.96179,17.08719 52,19.12279 7.36247,0.83085 27.9525,-0.57742 36,-2.46223 z m -28,-24.72893 -46,-0.66667 -0.43045,-4.50288 c -0.23676,-2.47657 0.12813,-5.06147 0.81086,-5.7442 1.68543,-1.68543 94.84804,-1.72447 96.53204,-0.0405 2.27379,2.27378 0.68544,9.91942 -2.24579,10.81036 -1.46666,0.44585 -23.36666,0.51058 -48.66666,0.14392 z m -55.45667,-58.0269 c -2.26782,-0.99516 -5.98824,-3.93338 -8.26756,-6.5294 -6.67172,-7.59865 -7.2293,-17.99594 -1.3649,-25.4513 1.49956,-1.90639 2.44889,-3.74375 2.10962,-4.08302 -0.33926,-0.33926 -4.05674,-1.51282 -8.26108,-2.60792 -12.53763,-3.26564 -12.75941,-3.49837 -12.75941,-13.39022 0,-6.38708 0.51423,-8.85892 1.95822,-9.41304 1.63853,-0.62876 56.48427,27.66286 61.70845,31.83168 2.79754,2.2324 1.87353,3.67012 -2.35874,3.67012 -3.60468,0 -3.93982,0.341 -3.20656,3.26252 1.82044,7.25324 -4.26704,17.73392 -12.84096,22.10801 -5.90556,3.0128 -10.82072,3.18996 -16.71708,0.60257 z m 102.66667,0 c -8.66914,-3.80413 -15.50079,-15.61844 -13.48619,-23.32229 0.59163,-2.2624 0.0277,-2.65081 -3.84864,-2.65081 -4.89359,0 -5.73811,-1.34734 -2.51907,-4.0189 2.69856,-2.23961 57.94428,-31.9811 59.40587,-31.9811 3.80722,0 5.28398,13.43744 1.9931,18.13582 -1.15686,1.65166 -4.86634,3.43802 -9.39548,4.52454 -4.11611,0.98745 -7.76902,2.25674 -8.11754,2.82068 -0.34853,0.56392 0.57719,3.01138 2.05715,5.4388 6.20839,10.18298 2.26454,23.84368 -8.67196,30.03792 -5.95088,3.37046 -11.33494,3.68433 -17.41724,1.01534 z"
     id="path3914"
     inkscape:connector-curvature="0"
     sodipodi:nodetypes="cssscscsccsssssssssssscsssccccssccscsccsssscsccsscssssccccscccccccscscsscscssscscccscs"
     inkscape:export-xdpi="96"
     inkscape:export-ydpi="96" />
</svg>
