<?xml version="1.0" encoding="UTF-8" standalone="no"?>
<!-- Created with Inkscape (http://www.inkscape.org/) -->

<svg
   xmlns:dc="http://purl.org/dc/elements/1.1/"
   xmlns:cc="http://creativecommons.org/ns#"
   xmlns:rdf="http://www.w3.org/1999/02/22-rdf-syntax-ns#"
   xmlns:svg="http://www.w3.org/2000/svg"
   xmlns="http://www.w3.org/2000/svg"
   xmlns:sodipodi="http://sodipodi.sourceforge.net/DTD/sodipodi-0.dtd"
   xmlns:inkscape="http://www.inkscape.org/namespaces/inkscape"
   version="1.1"
   id="svg3713"
   width="541.33331"
   height="437.33334"
   viewBox="0 0 541.33331 437.33334"
   sodipodi:docname="doppelganger-token.svg"
   inkscape:version="0.92.4 (5da689c313, 2019-01-14)"
   inkscape:export-filename="C:\Users\codyh\Desktop\onuw\minion-token.png"
   inkscape:export-xdpi="96"
   inkscape:export-ydpi="96">
  <metadata
     id="metadata3719">
    <rdf:RDF>
      <cc:Work
         rdf:about="">
        <dc:format>image/svg+xml</dc:format>
        <dc:type
           rdf:resource="http://purl.org/dc/dcmitype/StillImage" />
        <dc:title></dc:title>
      </cc:Work>
    </rdf:RDF>
  </metadata>
  <defs
     id="defs3717" />
  <sodipodi:namedview
     pagecolor="#ffffff"
     bordercolor="#666666"
     borderopacity="1"
     objecttolerance="10"
     gridtolerance="10"
     guidetolerance="10"
     inkscape:pageopacity="0"
     inkscape:pageshadow="2"
     inkscape:window-width="2560"
     inkscape:window-height="1377"
     id="namedview3715"
     showgrid="false"
     inkscape:zoom="1.94"
     inkscape:cx="405.98576"
     inkscape:cy="111.00667"
     inkscape:window-x="2552"
     inkscape:window-y="-8"
     inkscape:window-maximized="1"
     inkscape:current-layer="svg3713" />
  <path
     style="fill:#000000;stroke-width:1.33333337"
     d="m 121.85321,382.88908 -3.23242,-3.43903 -0.66667,-46.89431 -0.66667,-46.89429 -8,-0.77014 c -8.91678,-0.85838 -13.27094,-2.7096 -15.30277,-6.5061 -0.86666,-1.61936 -1.36389,-22.68134 -1.36389,-57.77227 0,-55.07813 0.008,-55.2354 3,-59.61844 3.977989,-5.82729 14.12076,-11.3552 27.09353,-14.76625 15.50763,-4.07757 51.12657,-4.10386 67.14702,-0.0496 16.72257,4.23198 27.99946,12.00096 30.21125,20.81339 1.78233,7.1014 0.76628,7.85139 -13.96439,10.30776 -19.23409,3.20732 -23.92105,6.15367 -30.29053,19.04144 -6.52193,13.19624 -7.58605,25.46405 -3.32059,38.28176 6.85495,20.59915 14.58106,26.33893 38.79038,28.81769 8.66249,0.88695 8.66686,0.88954 9.09626,5.37882 0.54194,5.66573 -1.64557,11.04177 -5.4686,13.43976 -1.62854,1.02149 -6.561,2.20487 -10.961,2.62971 l -8,0.77242 -0.66666,47.11684 -0.66667,47.11684 -3.74103,3.2165 c -3.72235,3.20044 -3.89586,3.2165 -34.76758,3.2165 h -31.02656 z m 206.57567,1.41717 c -6.00914,-3.26449 -6.47475,-7.19685 -6.47475,-54.68351 v -44.30745 l -8.01792,-0.57996 c -9.81665,-0.71007 -15.12922,-4.13812 -15.72904,-10.14948 -0.36976,-3.70564 1.1712,-5.73766 14.52991,-19.16004 16.75925,-16.83916 21.19099,-24.17927 21.19099,-35.0977 0,-11.40601 -4.82626,-19.42956 -21.37803,-35.54044 -17.12852,-16.67225 -17.62555,-18.16744 -8.92925,-26.86182 10.2951,-10.29284 27.58354,-14.69984 57.66667,-14.69984 33.82615,0 54.05354,6.38 62.10853,19.58988 2.39933,3.9348 2.54845,7.38004 2.55315,58.9842 l 0.005,54.80529 -3.18849,3.44045 c -3.07944,3.32278 -6.9543,4.53724 -16.81151,5.26912 l -4.66666,0.3465 -0.66667,47.11684 -0.66667,47.11684 -3.74101,3.21649 c -3.72089,3.19919 -3.90383,3.2162 -34,3.16311 -23.69673,-0.0419 -31.02351,-0.46871 -33.78424,-1.96848 z M 249.49411,267.88979 c -1.66859,-1.84376 -2.20665,-5.05516 -2.20665,-13.17008 0,-6.98502 -0.58188,-11.19749 -1.66667,-12.06577 -0.91667,-0.73372 -9.93579,-1.99631 -20.04248,-2.80576 -23.21557,-1.85933 -24.94851,-2.66115 -27.76373,-12.84615 -1.80088,-6.51526 0.35696,-17.91738 4.01782,-21.23042 1.73054,-1.56612 7.8929,-2.77054 21.60475,-4.22259 10.551,-1.11733 20.08364,-2.51188 21.18364,-3.09899 1.49399,-0.79741 2.16867,-4.39869 2.66667,-14.2339 0.65832,-13.00158 0.71372,-13.18292 4.42409,-14.4832 4.22374,-1.48018 5.31662,-0.96131 17.34677,8.23582 8.91513,6.81568 39.17025,35.80182 41.06548,39.34307 1.9323,3.61053 -0.81435,7.25409 -17.76339,23.56417 -17.42357,16.76671 -33.65929,29.45212 -37.69497,29.45212 -1.63057,0 -3.95768,-1.09724 -5.17133,-2.43832 z M 145.95412,128.57429 c -19.23566,-6.73202 -26.97036,-17.03771 -27.20374,-36.246171 -0.16795,-13.823756 2.70251,-21.491855 10.67082,-28.505847 8.16626,-7.188223 14.41859,-9.915588 24.25183,-10.579028 12.0604,-0.813704 19.19566,1.622594 27.80995,9.495577 8.85473,8.09272 12.24752,14.391883 13.33006,24.749097 2.28156,21.828872 -14.30019,40.878212 -36.78883,42.263532 -4.07188,0.25083 -9.50342,-0.27889 -12.07009,-1.17716 z m 205.33334,-0.0153 c -14.79867,-4.96029 -22.61937,-12.73115 -26.89161,-26.72021 -2.50913,-8.215928 -2.62493,-9.92717 -1.12781,-16.666666 2.3017,-10.361541 5.63717,-16.405013 12.11371,-21.948699 8.02295,-6.867341 14.08578,-9.363123 24.24855,-9.981983 7.06797,-0.430402 10.54087,0.07289 16.11561,2.335527 7.6244,3.094515 17.74512,12.413066 21.41511,19.717734 3.46019,6.887103 4.12956,18.713707 1.55952,27.554317 -5.53605,19.04336 -29.14483,31.83993 -47.43308,25.70998 z"
     id="path3751"
     inkscape:connector-curvature="0" />
  <rect
     style="fill:none"
     id="rect3755"
     width="345.34924"
     height="350.3634"
     x="89.627838"
     y="44.349739"
     ry="0" />
  <rect
     style="fill:none"
     id="rect3757"
     width="84.613693"
     height="41.366695"
     x="319.65173"
     y="219.21805" />
  <rect
     style="fill:none"
     id="rect3759"
     width="350.99014"
     height="347.22955"
     x="89.627838"
     y="44.349739" />
</svg>
