<?xml version="1.0" encoding="UTF-8" standalone="no"?>
<!-- Created with Inkscape (http://www.inkscape.org/) -->

<svg
   xmlns:dc="http://purl.org/dc/elements/1.1/"
   xmlns:cc="http://creativecommons.org/ns#"
   xmlns:rdf="http://www.w3.org/1999/02/22-rdf-syntax-ns#"
   xmlns:svg="http://www.w3.org/2000/svg"
   xmlns="http://www.w3.org/2000/svg"
   xmlns:sodipodi="http://sodipodi.sourceforge.net/DTD/sodipodi-0.dtd"
   xmlns:inkscape="http://www.inkscape.org/namespaces/inkscape"
   version="1.1"
   id="svg3713"
   width="541.33331"
   height="437.33334"
   viewBox="0 0 541.33331 437.33334"
   sodipodi:docname="hunter-token.svg"
   inkscape:version="0.92.4 (5da689c313, 2019-01-14)"
   inkscape:export-filename="C:\Users\codyh\Desktop\onuw\minion-token.png"
   inkscape:export-xdpi="96"
   inkscape:export-ydpi="96">
  <metadata
     id="metadata3719">
    <rdf:RDF>
      <cc:Work
         rdf:about="">
        <dc:format>image/svg+xml</dc:format>
        <dc:type
           rdf:resource="http://purl.org/dc/dcmitype/StillImage" />
        <dc:title></dc:title>
      </cc:Work>
    </rdf:RDF>
  </metadata>
  <defs
     id="defs3717" />
  <sodipodi:namedview
     pagecolor="#ffffff"
     bordercolor="#666666"
     borderopacity="1"
     objecttolerance="10"
     gridtolerance="10"
     guidetolerance="10"
     inkscape:pageopacity="0"
     inkscape:pageshadow="2"
     inkscape:window-width="2560"
     inkscape:window-height="1377"
     id="namedview3715"
     showgrid="false"
     inkscape:zoom="1.94"
     inkscape:cx="405.98576"
     inkscape:cy="111.00667"
     inkscape:window-x="2552"
     inkscape:window-y="-8"
     inkscape:window-maximized="1"
     inkscape:current-layer="svg3713" />
  <rect
     style="fill:none"
     id="rect3755"
     width="345.34924"
     height="350.3634"
     x="89.627838"
     y="44.349739"
     ry="0" />
  <rect
     style="fill:none"
     id="rect3757"
     width="84.613693"
     height="41.366695"
     x="319.65173"
     y="219.21805" />
  <rect
     style="fill:none"
     id="rect3759"
     width="350.99014"
     height="347.22955"
     x="89.627838"
     y="44.349739" />
  <path
     style="fill:#000000;stroke-width:1.33333337"
     d="m 220.84841,386.62692 c 0.72921,-4.49364 -0.11414,-6.0511 -12.09224,-22.33333 -7.08186,-9.62655 -14.10611,-19.1154 -15.60943,-21.08635 -1.50332,-1.97093 -4.59741,-6.17093 -6.87576,-9.33333 -3.74874,-5.20332 -15.20405,-20.75213 -44.96723,-61.03608 -5.6699,-7.67411 -10.13269,-14.87411 -9.91731,-16 0.31519,-1.6476 3.00205,-2.12061 13.76923,-2.42401 12.47354,-0.35148 13.56654,-0.17127 16.17294,2.66666 2.52929,2.75399 12.88752,16.74122 66.68162,90.04363 13.5833,18.50925 17.49312,23 20.02466,23 1.73016,0 8.55844,-2.09039 15.17396,-4.64531 47.3789,-18.29774 80.32151,-56.59374 91.20066,-106.02136 1.21056,-5.5 2.67109,-10.9 3.24561,-12 0.83981,-1.60792 4.78607,-2.0728 20.13011,-2.37133 11.85201,-0.2306 19.60734,0.15048 20.46234,1.00548 3.80186,3.80185 -3.1059,31.38316 -13.19856,52.69919 -16.63136,35.12598 -49.9653,65.98882 -83.96891,77.74414 -17.54086,6.06402 -24.88628,7.28755 -44.66667,7.4401 -18.55906,0.14312 -19.58313,0.29593 -25.57076,3.81576 -8.81385,5.18121 -10.98294,4.92862 -9.99426,-1.16386 z M 413.22275,252.01506 c -0.44514,-1.15998 -0.80932,-5.35998 -0.80932,-9.33334 v -7.22428 H 275.34166 138.26988 l -4.52311,4.66667 -4.52311,4.66667 H 100.7767 c -33.754501,0 -34.379211,-0.3009 -22.537391,-10.85534 4.12911,-3.68021 7.50746,-7.50577 7.50746,-8.50124 0,-0.99546 -3.29243,-4.69748 -7.3165,-8.22668 -12.41926,-10.89197 -12.04407,-11.08341 21.721611,-11.08341 h 29.07178 l 4.52311,4.66667 4.52311,4.66666 h 137.07178 137.07177 v -7.74516 c 0,-4.48809 0.77529,-8.80544 1.84362,-10.26646 2.15571,-2.94811 0.11707,-4.12286 22.57739,13.00968 8.4107,6.41558 15.66669,12.64066 16.12442,13.83349 0.94711,2.46811 -1.35985,4.64705 -20.92006,19.75936 -13.07747,10.10371 -17.30857,11.89515 -18.81605,7.96671 z m -55.20932,-47.49095 c -0.88,-0.88 -1.61412,-2.83 -1.63139,-4.33333 -0.0363,-3.15623 -4.00516,-18.34279 -7.33508,-28.06667 -13.4161,-39.17716 -50.468,-75.688066 -89.85374,-88.541826 -13.46896,-4.39568 -13.12559,-4.55496 -24.88327,11.54183 -5.75828,7.883326 -16.23569,22.133326 -23.28314,31.666656 -7.04746,9.53334 -18.46851,25.04362 -25.38013,34.4673 -6.91162,9.42368 -15.60194,21.12368 -19.31183,26 l -6.74525,8.86604 -13.61194,0.38024 c -11.70964,0.32711 -13.7314,0.0688 -14.46693,-1.84789 -0.47026,-1.22548 -0.30953,-3.0172 0.35718,-3.9816 0.66671,-0.9644 15.01219,-20.42609 31.87886,-43.24817 58.73277,-79.470636 57.92625,-78.298216 57.61354,-83.750306 -0.23661,-4.12539 0.11067,-4.81824 2.23216,-4.45271 1.3818,0.2381 4.90342,2.01522 7.8258,3.94916 5.10726,3.37983 6.09619,3.52461 25.48763,3.73155 11.09581,0.11842 22.8742,0.9388 26.1742,1.82308 3.3,0.88428 8.4,2.25539 11.33333,3.04692 10.10365,2.72637 32.32425,14.21538 42.88613,22.174 19.97769,15.053636 37.74049,36.580326 47.70051,57.808096 9.90144,21.10293 16.73569,47.65864 13.57949,52.7655 -1.38667,2.24366 -38.32265,2.24561 -40.56613,0.003 z"
     id="path3801"
     inkscape:connector-curvature="0" />
  <path
     style="fill:#000000;stroke-width:1.33333337"
     d=""
     id="path3799"
     inkscape:connector-curvature="0" />
  <path
     style="fill:#000000;stroke-width:1.33333337"
     d=""
     id="path3797"
     inkscape:connector-curvature="0" />
</svg>
