<?xml version="1.0" encoding="UTF-8" standalone="no"?>
<!-- Created with Inkscape (http://www.inkscape.org/) -->

<svg
   xmlns:dc="http://purl.org/dc/elements/1.1/"
   xmlns:cc="http://creativecommons.org/ns#"
   xmlns:rdf="http://www.w3.org/1999/02/22-rdf-syntax-ns#"
   xmlns:svg="http://www.w3.org/2000/svg"
   xmlns="http://www.w3.org/2000/svg"
   xmlns:sodipodi="http://sodipodi.sourceforge.net/DTD/sodipodi-0.dtd"
   xmlns:inkscape="http://www.inkscape.org/namespaces/inkscape"
   version="1.1"
   id="svg3713"
   width="541.33331"
   height="437.33334"
   viewBox="0 0 541.33331 437.33334"
   sodipodi:docname="tanner-token.svg"
   inkscape:version="0.92.4 (5da689c313, 2019-01-14)"
   inkscape:export-filename="C:\Users\codyh\Desktop\onuw\robber-token.png"
   inkscape:export-xdpi="96"
   inkscape:export-ydpi="96">
  <metadata
     id="metadata3719">
    <rdf:RDF>
      <cc:Work
         rdf:about="">
        <dc:format>image/svg+xml</dc:format>
        <dc:type
           rdf:resource="http://purl.org/dc/dcmitype/StillImage" />
        <dc:title></dc:title>
      </cc:Work>
    </rdf:RDF>
  </metadata>
  <defs
     id="defs3717" />
  <sodipodi:namedview
     pagecolor="#ffffff"
     bordercolor="#666666"
     borderopacity="1"
     objecttolerance="10"
     gridtolerance="10"
     guidetolerance="10"
     inkscape:pageopacity="0"
     inkscape:pageshadow="2"
     inkscape:window-width="2560"
     inkscape:window-height="1377"
     id="namedview3715"
     showgrid="false"
     inkscape:zoom="1.94"
     inkscape:cx="138.13709"
     inkscape:cy="205.78004"
     inkscape:window-x="2552"
     inkscape:window-y="-8"
     inkscape:window-maximized="1"
     inkscape:current-layer="svg3713"
     showguides="true"
     inkscape:guide-bbox="true">
    <sodipodi:guide
       position="-270.61855,481.95876"
       orientation="0,1"
       id="guide3861"
       inkscape:locked="false" />
    <sodipodi:guide
       position="-212.37113,474.74226"
       orientation="0,1"
       id="guide3863"
       inkscape:locked="false" />
    <sodipodi:guide
       position="-194.84536,474.74226"
       orientation="0,1"
       id="guide3865"
       inkscape:locked="false" />
    <sodipodi:guide
       position="-168.5567,474.74226"
       orientation="0,1"
       id="guide3867"
       inkscape:locked="false" />
    <sodipodi:guide
       position="-108.24742,474.74226"
       orientation="0,1"
       id="guide3869"
       inkscape:locked="false" />
    <sodipodi:guide
       position="-123.71134,474.74226"
       orientation="0,1"
       id="guide3871"
       inkscape:locked="false" />
    <sodipodi:guide
       position="-103.09278,394.84536"
       orientation="1,0"
       id="guide3873"
       inkscape:locked="false" />
    <sodipodi:guide
       position="-112.37113,343.29897"
       orientation="1,0"
       id="guide3875"
       inkscape:locked="false" />
  </sodipodi:namedview>
  <rect
     style="fill:none"
     id="rect3755"
     width="345.34924"
     height="350.3634"
     x="89.627838"
     y="44.349739"
     ry="0" />
  <rect
     style="fill:none"
     id="rect3757"
     width="84.613693"
     height="41.366695"
     x="319.65173"
     y="219.21805" />
  <rect
     style="fill:none"
     id="rect3759"
     width="350.99014"
     height="347.22955"
     x="89.627838"
     y="44.349739" />
  <path
     style="fill:#000000;stroke-width:1.33333337"
     d="m 253.28324,377.13639 c -19.71443,-2.29675 -33.35381,-8.81339 -45.34808,-21.66647 -13.09728,-14.03505 -18.781,-29.08153 -19.97206,-52.87197 -2.24375,-44.81701 22.62764,-101.19563 53.63606,-121.58248 4.65116,-3.05796 8.15198,-6.05288 7.77961,-6.65539 -0.37236,-0.60251 -2.64863,-1.09547 -5.05836,-1.09547 -4.86076,0 -8.12399,-2.81137 -9.45487,-8.14569 -1.30813,-5.24316 3.66479,-10.00629 12.66024,-12.12615 6.87523,-1.6202 7.33334,-1.97804 7.33334,-5.72816 0,-3.94464 -0.0876,-3.99386 -6.32656,-3.55733 -5.59402,0.39143 -6.80626,-0.0371 -10.46946,-3.70021 -3.3678,-3.36781 -3.97265,-4.82123 -3.23292,-7.76855 1.58162,-6.30162 3.59044,-7.51337 17.02894,-10.27202 3.01164,-0.61823 3.66666,-1.46272 3.66666,-4.72729 0,-4.14083 -0.49285,-4.39966 -7.63617,-4.01016 -6.47888,0.35327 -9.50777,-1.06397 -11.81683,-5.52918 -1.67666,-3.24232 -1.78832,-4.77177 -0.56412,-7.727263 1.77728,-4.29074 5.0325,-6.16559 13.35046,-7.68923 l 6,-1.09904 0.37637,-16.541763 c 0.22145,-9.733365 0.9938,-17.285738 1.87651,-18.349331 1.05242,-1.268093 4.1236,-1.691331 10.2903,-1.418099 l 8.79015,0.38947 0.66667,16 0.66666,16.000003 h 7.78402 c 6.57174,0 8.18104,0.49022 10.33333,3.14771 5.62593,6.94649 1.38912,15.107463 -8.78401,16.919813 -7.75418,1.38142 -10.2263,2.99339 -9.74758,6.35602 0.35972,2.5268 1.37946,2.96433 7.74758,3.32418 8.97229,0.50702 13.33333,3.90468 13.33333,10.38792 0,5.50882 -4.66596,9.40093 -12.71755,10.60834 -6.41757,0.96237 -9.09374,3.1574 -8.36205,6.85863 0.35361,1.78874 1.82021,2.44073 5.77676,2.56812 9.28915,0.29909 9.8152,0.4418 12.58423,3.41401 2.92381,3.13835 3.49837,7.80024 1.43624,11.65337 -1.43859,2.68802 -6.27355,4.82211 -13.71763,6.05476 -6.341,1.05002 -6.94403,5.1019 -1.06435,7.15156 9.93938,3.4649 26.04644,18.17871 35.57515,32.49794 7.10793,10.68141 16.49495,30.39368 20.18665,42.39096 7.41768,24.10587 9.45046,52.60616 5.07831,71.1994 -6.14183,26.11907 -22.30247,44.05157 -46.77576,51.90433 -6.25209,2.00611 -26.79421,5.10616 -31.29836,4.72328 -1.11923,-0.0951 -6.34412,-0.675 -11.61085,-1.28857 z m 38.30634,-23.67212 c 22.18274,-8.56533 32.23094,-26.09209 32.21964,-56.19965 -0.0133,-33.84616 -14.02783,-70.72584 -35.03674,-92.19639 -16.39919,-16.75951 -29.67915,-15.98607 -46.75462,2.72308 -23.60158,25.8596 -38.17495,75.84345 -31.3351,107.47331 4.70444,21.755 16.07562,34.19588 36.69228,40.144 9.57448,2.76234 34.91052,1.64817 44.21454,-1.94435 z"
     id="path3901"
     inkscape:connector-curvature="0"
     inkscape:export-xdpi="96"
     inkscape:export-ydpi="96" />
</svg>
